<svg width="113" height="113" viewBox="0 0 113 113" fill="none" xmlns="http://www.w3.org/2000/svg"><path fill-rule="evenodd" clip-rule="evenodd" d="M56.5 113C87.7041 113 113 87.7041 113 56.5C113 25.2959 87.7041 0 56.5 0C25.2959 0 0 25.2959 0 56.5C0 68.2774 3.60351 79.2131 9.76811 88.2648C10.3112 89.0623 10.4694 90.0655 10.1643 90.9808L5.74552 104.237C4.96377 106.582 7.19499 108.813 9.54026 108.032L23.0555 103.527C23.9493 103.229 24.9282 103.372 25.7177 103.886C34.5735 109.651 45.1456 113 56.5 113Z" fill="currentColor"/><path d="M66.5612 42.58C64.9918 40.7591 64.1269 38.4207 64.1275 36H57.0332V64.9333C56.9784 66.4991 56.328 67.9821 55.2188 69.0702C54.1097 70.1583 52.6283 70.7664 51.0867 70.7667C47.8265 70.7667 45.1173 68.06 45.1173 64.7C45.1173 60.6867 48.9286 57.6767 52.8546 58.9133V51.54C44.9337 50.4667 38 56.72 38 64.7C38 72.47 44.3367 78 51.0638 78C58.273 78 64.1275 72.05 64.1275 64.7V50.0233C67.0043 52.123 70.4582 53.2495 74 53.2433V46.0333C74 46.0333 69.6837 46.2433 66.5612 42.58Z" fill="white"/></svg>