<svg width="113" height="113" viewBox="0 0 113 113" fill="none" xmlns="http://www.w3.org/2000/svg"><path fill-rule="evenodd" clip-rule="evenodd" d="M56.5 113C87.7041 113 113 87.7041 113 56.5C113 25.2959 87.7041 0 56.5 0C25.2959 0 0 25.2959 0 56.5C0 68.2774 3.60351 79.2131 9.76811 88.2648C10.3112 89.0623 10.4694 90.0655 10.1643 90.9808L5.74552 104.237C4.96377 106.582 7.19499 108.813 9.54026 108.032L23.0555 103.527C23.9493 103.229 24.9282 103.372 25.7177 103.886C34.5735 109.651 45.1456 113 56.5 113Z" fill="currentColor"/><path d="M40.05 40.05C40.764 39.242 41.6463 38.6003 42.635 38.17C44.0674 37.6531 45.5772 37.3829 47.1 37.371C47.9964 37.371 48.6773 37.3505 49.5198 37.3251C50.886 37.284 52.6769 37.23 56.5 37.23C62.6805 37.23 63.55 37.23 65.9 37.371M40.05 40.05L39.3904 39.2984C39.3745 39.3124 39.3586 39.3264 39.3428 39.3405M40.05 40.05C39.2422 40.7589 38.6072 41.6431 38.1935 42.635L40.05 40.05ZM39.3428 39.3405C40.146 38.4453 41.1327 37.7332 42.2359 37.2531L42.2654 37.2403L42.2956 37.2294C43.8344 36.6741 45.4563 36.3839 47.0922 36.371L47.1 36.371V36.371C47.9801 36.371 48.6427 36.351 49.481 36.3258C49.7446 36.3179 50.0256 36.3094 50.3361 36.3009C51.6294 36.2654 53.4011 36.23 56.5 36.23H56.5447C62.6569 36.23 63.5739 36.23 65.9361 36.3714M39.3428 39.3405C38.4431 40.1427 37.7348 41.137 37.2706 42.2501L37.2633 42.2675L37.2567 42.2851C36.6853 43.8151 36.3857 45.4331 36.3712 47.0661C36.23 49.4267 36.23 50.3451 36.23 56.4553V56.5C36.23 59.5989 36.2654 61.3706 36.3009 62.6639C36.3094 62.9744 36.3179 63.2554 36.3258 63.519C36.351 64.3573 36.371 65.0199 36.371 65.9V65.9157L36.3715 65.9313C36.423 67.5742 36.763 69.1952 37.376 70.7202C37.7902 71.8746 38.4627 72.9192 39.3422 73.774C40.1667 74.6255 41.1568 75.2992 42.2517 75.7536L42.283 75.7666L42.3152 75.7775C43.8793 76.3055 45.5222 76.5619 47.1727 76.5355C49.524 76.676 50.45 76.676 56.5493 76.676H56.594C62.7606 76.676 63.6627 76.6527 66.025 76.5347C67.6233 76.5142 69.2066 76.2236 70.708 75.6753L70.708 75.6754L70.7182 75.6715C71.8677 75.2375 72.9094 74.5594 73.7714 73.684C74.6601 72.825 75.343 71.776 75.7688 70.6154L75.7693 70.614C76.3176 69.1126 76.6082 67.5293 76.6287 65.931C76.7467 63.5687 76.77 62.6666 76.77 56.5C76.77 50.3364 76.7467 49.4321 76.6289 47.0725C76.6194 45.4415 76.3286 43.8244 75.7694 42.2921L75.7644 42.2784L75.759 42.2649C75.3186 41.1596 74.6429 40.1637 73.7788 39.3462M39.3428 39.3405L74.83 42.635C74.4393 41.6544 73.8376 40.7719 73.0675 40.05M65.9361 36.3714C65.9279 36.3713 65.9197 36.3712 65.9115 36.3711L65.9 37.371M65.9361 36.3714C65.944 36.3718 65.9519 36.3723 65.9599 36.3728L65.9 37.371M65.9361 36.3714C67.5326 36.3925 69.1141 36.683 70.614 37.2307L70.6189 37.2325C71.8236 37.6796 72.906 38.4037 73.7788 39.3462M65.9 37.371C67.3917 37.3881 68.8697 37.6583 70.271 38.17C71.3389 38.5663 72.2974 39.2107 73.0675 40.05M73.7788 39.3462C73.7697 39.3376 73.7605 39.329 73.7514 39.3204L73.0675 40.05M73.7788 39.3462C73.7873 39.3554 73.7958 39.3647 73.8043 39.3739L73.0675 40.05M78.8593 46.8414L78.8597 46.858L78.8606 46.8745C78.9997 49.3321 79 50.1019 79 56.5C79 59.6876 78.9649 61.4763 78.9299 62.777C78.9219 63.0746 78.9138 63.3485 78.9061 63.609C78.8805 64.4801 78.8592 65.2028 78.859 66.1701C78.8147 68.005 78.4707 69.8204 77.8405 71.5444C77.3009 72.9751 76.4524 74.2693 75.3553 75.3346L75.3439 75.3457L75.3328 75.3572C74.2745 76.4527 72.9809 77.2932 71.5499 77.815L71.5499 77.815L71.5389 77.8191C69.8186 78.4694 68 78.8211 66.1613 78.8592L66.1434 78.8596L66.1255 78.8606C63.6679 78.9997 62.8981 79 56.5 79C50.1019 79 49.3321 78.9997 46.8745 78.8606L46.8566 78.8596L46.8387 78.8592C45 78.8211 43.1814 78.4694 41.4611 77.8191L41.4611 77.8191L41.4537 77.8163C40.023 77.2883 38.7284 76.4472 37.6645 75.3544L37.6538 75.3434L37.6428 75.3328C36.5473 74.2745 35.7068 72.9809 35.185 71.5499L35.185 71.5499L35.1809 71.5389C34.5306 69.8186 34.1789 68 34.1408 66.1613L34.1404 66.1434L34.1394 66.1255C34.0003 63.6679 34 62.8981 34 56.5C34 50.1019 34.0003 49.3321 34.1394 46.8745L34.1404 46.8566L34.1408 46.8387C34.1789 45 34.5306 43.1814 35.1809 41.4611L35.181 41.4611L35.185 41.4501C35.7068 40.0191 36.5473 38.7255 37.6428 37.6672L37.6538 37.6566L37.6645 37.6456C38.7284 36.5528 40.023 35.7117 41.4537 35.1836L41.4537 35.1837L41.4611 35.1809C43.1814 34.5306 45 34.1789 46.8387 34.1408L46.8566 34.1404L46.8745 34.1394C49.3321 34.0003 50.1019 34 56.5 34C62.8981 34 63.6679 34.0003 66.1255 34.1394L66.1434 34.1404L66.1613 34.1408C68 34.1789 69.8186 34.5306 71.5389 35.1809L71.5389 35.181L71.5499 35.185C72.9809 35.7068 74.2745 36.5473 75.3328 37.6428L75.3425 37.6528L75.3524 37.6626C76.4461 38.7333 77.2951 40.0279 77.8413 41.4576C78.4723 43.1846 78.8162 45.0033 78.8593 46.8414ZM56.5019 45.4445L56.5039 45.4445C57.9581 45.4388 59.399 45.7207 60.7439 46.2739C62.0887 46.8271 63.311 47.6407 64.3402 48.668C65.3695 49.6953 66.1855 50.9159 66.7413 52.2597C67.2972 53.6034 67.5819 55.0438 67.579 56.498V56.5C67.579 58.6856 66.9311 60.8223 65.7173 62.6399C64.5035 64.4575 62.7781 65.8745 60.7592 66.7119C58.7403 67.5493 56.5186 67.7695 54.3746 67.3446C52.2306 66.9198 50.2607 65.869 48.7137 64.325C47.1667 62.781 46.1121 60.8131 45.6831 58.67C45.2541 56.5269 45.4699 54.3047 46.3034 52.2842C47.1368 50.2637 48.5505 48.5355 50.3657 47.3182C52.181 46.1008 54.3163 45.4488 56.5019 45.4445ZM68.0379 42.4377C68.3372 42.2377 68.689 42.131 69.049 42.131C69.5317 42.131 69.9946 42.3227 70.3359 42.6641C70.6772 43.0054 70.869 43.4683 70.869 43.951C70.869 44.311 70.7623 44.6628 70.5623 44.9621C70.3623 45.2614 70.078 45.4947 69.7455 45.6325C69.4129 45.7702 69.047 45.8063 68.6939 45.736C68.3409 45.6658 68.0166 45.4925 67.7621 45.2379C67.5075 44.9834 67.3342 44.6591 67.264 44.3061C67.1937 43.953 67.2298 43.5871 67.3675 43.2545C67.5053 42.922 67.7386 42.6377 68.0379 42.4377ZM51.5968 63.8381C53.0482 64.8079 54.7545 65.3255 56.5 65.3255C57.659 65.3255 58.8066 65.0972 59.8774 64.6537C60.9481 64.2102 61.921 63.5601 62.7406 62.7406C63.5601 61.921 64.2102 60.9481 64.6537 59.8774C65.0972 58.8066 65.3255 57.659 65.3255 56.5C65.3255 54.7545 64.8079 53.0482 63.8381 51.5968C62.8684 50.1455 61.49 49.0143 59.8774 48.3463C58.2647 47.6783 56.4902 47.5035 54.7782 47.8441C53.0663 48.1846 51.4937 49.0252 50.2594 50.2594C49.0252 51.4937 48.1846 53.0663 47.8441 54.7782C47.5035 56.4902 47.6783 58.2647 48.3463 59.8774C49.0143 61.49 50.1455 62.8684 51.5968 63.8381Z" fill="white" stroke="white" stroke-width="2"/></svg>