<svg width="113" height="113" viewBox="0 0 113 113" fill="none" xmlns="http://www.w3.org/2000/svg"><path fill-rule="evenodd" clip-rule="evenodd" d="M56.5 113C87.7041 113 113 87.7041 113 56.5C113 25.2959 87.7041 0 56.5 0C25.2959 0 0 25.2959 0 56.5C0 68.2774 3.60351 79.2131 9.76811 88.2648C10.3112 89.0623 10.4694 90.0655 10.1643 90.9808L5.74552 104.237C4.96377 106.582 7.19499 108.813 9.54026 108.032L23.0555 103.527C23.9493 103.229 24.9282 103.372 25.7177 103.886C34.5735 109.651 45.1456 113 56.5 113Z" fill="currentColor"/><path d="M56 35C56 35 38.4875 34.9999 34.1195 36.1494C31.7087 36.7819 29.8143 38.6453 29.1703 41.0103C27.9999 45.3003 28 57 28 57C28 57 27.9999 68.6997 29.1703 72.9897C29.8143 75.3575 31.7115 77.2181 34.1195 77.8506C38.4875 79.0001 56 79 56 79C56 79 73.5125 79.0001 77.8805 77.8506C80.2885 77.2181 82.1857 75.3547 82.8297 72.9897C84.0001 68.6997 84 57 84 57C84 57 84.0001 45.3003 82.8297 41.0103C82.1857 38.6453 80.2885 36.7819 77.8805 36.1494C73.5125 34.9999 56 35 56 35ZM56 40.5C64.0696 40.5 74.1744 40.8674 76.4312 41.4614C76.9044 41.5852 77.2923 41.9661 77.4211 42.4336C78.0959 44.9031 78.4 52.4405 78.4 57C78.4 61.5595 78.0959 69.0942 77.4211 71.5664C77.2951 72.0312 76.9072 72.4121 76.4312 72.5386C74.1772 73.1326 64.0696 73.5 56 73.5C47.9332 73.5 37.8283 73.1326 35.5687 72.5386C35.0955 72.4148 34.7077 72.0339 34.5789 71.5664C33.9041 69.0969 33.6 61.5595 33.6 57C33.6 52.4405 33.9041 44.9032 34.5789 42.4282C34.7049 41.9662 35.0927 41.5852 35.5687 41.4614C37.8227 40.8674 47.9304 40.5 56 40.5ZM50.4 47.4717V66.5283L67.2 57L50.4 47.4717Z" fill="white"/></svg>