<svg width="113" height="113" viewBox="0 0 113 113" fill="none" xmlns="http://www.w3.org/2000/svg"><path fill-rule="evenodd" clip-rule="evenodd" d="M56.5 113C87.7041 113 113 87.7041 113 56.5C113 25.2959 87.7041 0 56.5 0C25.2959 0 0 25.2959 0 56.5C0 68.2774 3.60351 79.2131 9.76811 88.2648C10.3112 89.0623 10.4694 90.0655 10.1643 90.9808L5.74552 104.237C4.96377 106.582 7.19499 108.813 9.54026 108.032L23.0555 103.527C23.9493 103.229 24.9282 103.372 25.7177 103.886C34.5735 109.651 45.1456 113 56.5 113Z" fill="currentColor"/><path d="M40.2852 35C37.3672 35 35 37.3095 35 40.1612C35 43.0129 37.3653 45.3759 40.2812 45.3759C43.1972 45.3759 45.5664 43.0129 45.5664 40.1612C45.5664 37.3115 43.2032 35 40.2852 35ZM66.0703 48.6818C61.6323 48.6818 59.093 50.95 57.875 53.2055H57.7461V49.2888H49V78H58.1133V63.7876C58.1133 60.0426 58.4025 56.4237 63.1445 56.4237C67.8185 56.4237 67.8867 60.6937 67.8867 64.0242V78H76.9883H77V62.23C77 54.5135 75.3023 48.6818 66.0703 48.6818ZM35.7266 49.2888V78H44.8477V49.2888H35.7266Z" fill="white"/></svg>