<svg width="113" height="113" viewBox="0 0 113 113" fill="none" xmlns="http://www.w3.org/2000/svg"><path fill-rule="evenodd" clip-rule="evenodd" d="M56.5 113C87.7041 113 113 87.7041 113 56.5C113 25.2959 87.7041 0 56.5 0C25.2959 0 0 25.2959 0 56.5C0 68.2774 3.60351 79.2131 9.76811 88.2648C10.3112 89.0623 10.4694 90.0655 10.1643 90.9808L5.74552 104.237C4.96377 106.582 7.19499 108.813 9.54026 108.032L23.0555 103.527C23.9493 103.229 24.9282 103.372 25.7177 103.886C34.5735 109.651 45.1456 113 56.5 113Z" fill="currentColor"/><path d="M56 31C41.6402 31 30 42.6402 30 57C30 71.3598 41.6402 83 56 83C70.3598 83 82 71.3598 82 57C82 42.6402 70.3598 31 56 31ZM56 36.2C67.4868 36.2 76.8 45.5132 76.8 57C76.8 67.2294 69.4061 75.7152 59.6766 77.4547V64.8914H65.8262L66.7402 57.8074H59.7172V53.293C59.7172 51.2442 60.2882 49.8602 63.2262 49.8602H66.9383V43.5379C65.1313 43.3533 63.317 43.2636 61.4996 43.2688C56.1072 43.2688 52.4148 46.5599 52.4148 52.6023V57.8176H46.3211V64.9016H52.4148V77.4699C42.6404 75.7674 35.2 67.2613 35.2 57C35.2 45.5132 44.5132 36.2 56 36.2Z" fill="white"/></svg>