<svg width="113" height="113" viewBox="0 0 113 113" fill="none" xmlns="http://www.w3.org/2000/svg"><path fill-rule="evenodd" clip-rule="evenodd" d="M56.5 113C87.7041 113 113 87.7041 113 56.5C113 25.2959 87.7041 0 56.5 0C25.2959 0 0 25.2959 0 56.5C0 68.2774 3.60351 79.2131 9.76811 88.2648C10.3112 89.0623 10.4694 90.0655 10.1643 90.9808L5.74552 104.237C4.96377 106.582 7.19499 108.813 9.54026 108.032L23.0555 103.527C23.9493 103.229 24.9282 103.372 25.7177 103.886C34.5735 109.651 45.1456 113 56.5 113Z" fill="currentColor"/><path d="M67.6074 67.639L72.2611 83L56.5085 70.724L67.6074 67.639ZM82 50.87H62.5244L56.5106 31L50.4756 50.8745L31 50.8472L46.7717 63.1437L40.7367 82.9977L56.5085 70.724L66.2474 63.1437L82 50.87Z" fill="white"/></svg>