<svg width="29" height="28" viewBox="0 0 29 28" fill="none" xmlns="http://www.w3.org/2000/svg"><path d="M10.9618 3.03106C10.5315 1.95536 9.4897 1.25 8.33114 1.25H4.43421C2.95176 1.25 1.75 2.45147 1.75 3.93392C1.75 16.5347 11.9653 26.75 24.5661 26.75C26.0485 26.75 27.25 25.5481 27.25 24.0657L27.2507 20.1681C27.2507 19.0095 26.5455 17.9679 25.4698 17.5376L21.7348 16.0442C20.7686 15.6577 19.6684 15.8316 18.8689 16.4978L17.905 17.3018C16.7792 18.2399 15.1228 18.1653 14.0866 17.1291L11.3723 14.4123C10.3361 13.3761 10.2595 11.7211 11.1977 10.5953L12.0015 9.63142C12.6677 8.83194 12.8432 7.73148 12.4567 6.76521L10.9618 3.03106Z" stroke="currentColor" stroke-width="2" stroke-linecap="round" stroke-linejoin="round"/></svg>