<svg width="21" height="21" viewBox="0 0 21 21" fill="none" xmlns="http://www.w3.org/2000/svg"><path d="M7.5002 3.5H4.7002C3.58009 3.5 3.01962 3.5 2.5918 3.71799C2.21547 3.90973 1.90973 4.21547 1.71799 4.5918C1.5 5.01962 1.5 5.58009 1.5 6.7002V16.3002C1.5 17.4203 1.5 17.9801 1.71799 18.4079C1.90973 18.7842 2.21547 19.0905 2.5918 19.2822C3.0192 19.5 3.57899 19.5 4.69691 19.5H14.3031C15.421 19.5 15.98 19.5 16.4074 19.2822C16.7837 19.0905 17.0905 18.7839 17.2822 18.4076C17.5 17.9802 17.5 17.421 17.5 16.3031V13.5M13.5 4.5L7.5 10.5V13.5H10.5L16.5 7.5M13.5 4.5L16.5 1.5L19.5 4.5L16.5 7.5M13.5 4.5L16.5 7.5" stroke="currentColor" stroke-width="2" stroke-linecap="round" stroke-linejoin="round"/></svg>