<svg width="24" height="25" viewBox="0 0 24 25" fill="none" xmlns="http://www.w3.org/2000/svg"><path fill-rule="evenodd" clip-rule="evenodd" d="M18.8149 7.36637C18.8149 11.1303 15.7639 14.1813 12 14.1813C8.2361 14.1813 5.18506 11.1303 5.18506 7.36637C5.18506 3.60249 8.2361 0.551453 12 0.551453C15.7639 0.551453 18.8149 3.60249 18.8149 7.36637ZM17.4519 7.36637C17.4519 8.81231 16.8775 10.199 15.8551 11.2215C14.8326 12.2439 13.4459 12.8183 12 12.8183C10.554 12.8183 9.16731 12.2439 8.14488 11.2215C7.12244 10.199 6.54804 8.81231 6.54804 7.36637C6.54804 5.92043 7.12244 4.53371 8.14488 3.51127C9.16731 2.48883 10.554 1.91444 12 1.91444C13.4459 1.91444 14.8326 2.48883 15.8551 3.51127C16.8775 4.53371 17.4519 5.92043 17.4519 7.36637Z" fill="currentColor"/><path d="M16.4297 15.5461C16.3572 15.5296 16.2813 15.5383 16.2144 15.5707C16.1475 15.6032 16.0936 15.6574 16.0617 15.7246L13.363 23.4323V20.998L12.9712 18.2577C13.0963 18.2314 13.2114 18.1703 13.3035 18.0817C13.3955 17.993 13.4608 17.8802 13.4918 17.7561L13.8326 16.3931C13.8577 16.2927 13.8597 16.1879 13.8383 16.0866C13.8168 15.9853 13.7726 15.8902 13.709 15.8086C13.6453 15.7269 13.5639 15.6608 13.4709 15.6153C13.3779 15.5699 13.2757 15.5462 13.1722 15.5461H10.8292C10.7257 15.5461 10.6236 15.5697 10.5305 15.6151C10.4375 15.6605 10.356 15.7265 10.2923 15.8081C10.2286 15.8897 10.1843 15.9847 10.1628 16.0859C10.1413 16.1872 10.1431 16.292 10.1682 16.3925L10.5089 17.7554C10.5398 17.8796 10.605 17.9925 10.6971 18.0814C10.7892 18.1702 10.9044 18.2313 11.0296 18.2577L10.637 20.998V22.8353L7.93834 15.7246C7.90643 15.6574 7.85258 15.6032 7.78569 15.5707C7.71879 15.5383 7.64284 15.5296 7.57034 15.5461C7.30981 15.6089 7.04903 15.6707 6.78798 15.7314C5.24645 16.0926 3.341 16.5383 2.3283 17.2034C1.12683 17.9919 0.414673 18.9215 0.414673 19.9757V24.4054H23.5854V19.9757C23.5854 18.9215 22.8732 17.9926 21.6718 17.2034C20.6591 16.5383 18.7536 16.0926 17.2121 15.7314C16.9374 15.6674 16.6737 15.606 16.4297 15.5461Z" fill="currentColor"/></svg>