<svg width="26" height="27" viewBox="0 0 26 27" fill="none" xmlns="http://www.w3.org/2000/svg"><g clip-path="url(#clip0_63_16)"><path d="M22.1785 4.18146C22.297 4.24917 22.3943 4.3465 22.4705 4.47345C22.5467 4.6004 22.5848 4.73582 22.5848 4.8797C22.5848 4.94741 22.5763 5.01088 22.5594 5.07013C22.5425 5.12937 22.5213 5.18862 22.4959 5.24786L13.5203 23.2117C13.4442 23.3725 13.3257 23.491 13.1649 23.5672L10.9686 24.6717C10.6977 24.8071 10.4057 24.8748 10.0926 24.8748H9.97833C9.94448 24.8748 9.90216 24.8706 9.85138 24.8621L9.2547 26.0555C9.18699 26.1909 9.08966 26.2967 8.96271 26.3729C8.83575 26.449 8.69187 26.4914 8.53107 26.4998C8.31101 26.4998 8.12059 26.4194 7.95978 26.2586C7.79897 26.0978 7.71857 25.9074 7.71857 25.6873C7.71857 25.5858 7.74819 25.4588 7.80743 25.3065C7.86668 25.1541 7.93439 24.9975 8.01056 24.8367C8.08673 24.6759 8.17137 24.5193 8.26447 24.367C8.35756 24.2147 8.42104 24.0962 8.4549 24.0115C8.23484 23.673 8.12482 23.3048 8.12482 22.907V20.8123C8.12482 20.6769 8.15444 20.5542 8.21368 20.4442L15.5262 5.81915L14.701 5.4129L11.6922 11.4305C11.6245 11.5659 11.5272 11.6717 11.4002 11.7479C11.2733 11.824 11.1294 11.8664 10.9686 11.8748C10.7485 11.8748 10.5581 11.7944 10.3973 11.6336C10.2365 11.4728 10.1561 11.2824 10.1561 11.0623C10.1561 10.9523 10.1857 10.8296 10.2449 10.6942L13.2791 4.62579C13.4145 4.35496 13.5965 4.14337 13.825 3.99103C14.0535 3.83868 14.3201 3.75828 14.6248 3.74982C14.921 3.74982 15.2003 3.82176 15.4627 3.96564C15.7251 4.10952 15.9874 4.24493 16.2498 4.37189L17.1512 2.56915C17.2189 2.42527 17.3162 2.31525 17.4432 2.23907C17.5701 2.1629 17.714 2.12482 17.8748 2.12482C17.9848 2.12482 18.0779 2.14174 18.1541 2.1756C18.2557 1.97247 18.353 1.77358 18.4461 1.57892C18.5392 1.38426 18.6492 1.20229 18.7762 1.03302C18.9031 0.863749 19.0555 0.736796 19.2332 0.652161C19.4109 0.567525 19.6352 0.516744 19.9061 0.499817C20.1769 0.499817 20.435 0.563293 20.6805 0.690247L21.8738 1.28693C22.1447 1.42234 22.3563 1.60008 22.5086 1.82013C22.6609 2.04018 22.7414 2.31101 22.7498 2.63263C22.7498 2.92039 22.6863 3.18699 22.5594 3.43243C22.4324 3.67788 22.3055 3.92755 22.1785 4.18146ZM19.6141 2.89923L20.7186 3.44513L21.0867 2.7088L19.9822 2.1629L19.6141 2.89923ZM20.6805 5.24786L18.243 4.02911L9.74982 21.0027V22.907C9.74982 23.0001 9.78367 23.0805 9.85138 23.1483C9.91909 23.216 9.99949 23.2498 10.0926 23.2498C10.1264 23.2498 10.1942 23.2287 10.2957 23.1863C10.3973 23.144 10.52 23.089 10.6639 23.0213C10.8078 22.9536 10.9559 22.8817 11.1082 22.8055C11.2606 22.7293 11.4129 22.6489 11.5652 22.5643C11.7176 22.4796 11.8445 22.4119 11.9461 22.3611C12.0477 22.3104 12.1281 22.268 12.1873 22.2342L20.6805 5.24786ZM22.7498 10.2498C23.1984 10.2498 23.6173 10.3345 24.0067 10.5037C24.396 10.673 24.743 10.9057 25.0477 11.202C25.3524 11.4982 25.5851 11.841 25.7459 12.2303C25.9067 12.6196 25.9914 13.0428 25.9998 13.4998C25.9998 13.9484 25.9152 14.3673 25.7459 14.7567C25.5766 15.146 25.3439 15.493 25.0477 15.7977C24.7514 16.1024 24.4087 16.3351 24.0193 16.4959C23.63 16.6567 23.2068 16.7414 22.7498 16.7498H19.0936L19.9061 15.1248H22.7498C22.9783 15.1248 23.1899 15.0825 23.3846 14.9979C23.5792 14.9132 23.7485 14.799 23.8924 14.6551C24.0363 14.5112 24.1548 14.3377 24.2479 14.1346C24.341 13.9315 24.3833 13.7199 24.3748 13.4998C24.3748 13.2713 24.3325 13.0597 24.2479 12.8651C24.1632 12.6704 24.049 12.5011 23.9051 12.3572C23.7612 12.2134 23.5877 12.0949 23.3846 12.0018C23.1815 11.9087 22.9699 11.8664 22.7498 11.8748C22.5298 11.8748 22.3393 11.7944 22.1785 11.6336C22.0177 11.4728 21.9373 11.2824 21.9373 11.0623C21.9373 10.8423 22.0177 10.6518 22.1785 10.491C22.3393 10.3302 22.5298 10.2498 22.7498 10.2498ZM1.62482 20.8123C1.62482 21.3709 1.73061 21.8957 1.9422 22.3865C2.15379 22.8774 2.44155 23.3091 2.80548 23.6815C3.16941 24.0539 3.60105 24.3458 4.1004 24.5574C4.59975 24.769 5.12872 24.8748 5.68732 24.8748H6.24591C6.20359 25.0018 6.16974 25.133 6.14435 25.2684C6.11896 25.4038 6.10203 25.5434 6.09357 25.6873C6.09357 25.8312 6.10626 25.9708 6.13165 26.1063C6.15704 26.2417 6.19513 26.3729 6.24591 26.4998H5.68732C4.90021 26.4998 4.16388 26.3517 3.47833 26.0555C2.79279 25.7593 2.19187 25.353 1.6756 24.8367C1.15932 24.3205 0.753072 23.7195 0.456848 23.034C0.160624 22.3484 0.00828044 21.6079 -0.000183105 20.8123C-0.000183105 20.0252 0.147929 19.2889 0.444153 18.6033C0.740377 17.9178 1.14663 17.3169 1.6629 16.8006C2.17918 16.2843 2.78009 15.8781 3.46564 15.5818C4.15118 15.2856 4.89174 15.1333 5.68732 15.1248H8.53107L7.71857 16.7498H5.68732C5.12872 16.7498 4.60398 16.8556 4.1131 17.0672C3.62221 17.2788 3.19057 17.5708 2.81818 17.9432C2.44578 18.3156 2.15379 18.7472 1.9422 19.2381C1.73061 19.729 1.62482 20.2537 1.62482 20.8123Z" fill="white"/></g><defs><clipPath id="clip0_63_16"><rect width="26" height="26" fill="currentColor" transform="translate(-0.000183105 0.499817)"/></clipPath></defs></svg>