<svg width="20" height="22" viewBox="0 0 20 22" fill="none" xmlns="http://www.w3.org/2000/svg"><path fill-rule="evenodd" clip-rule="evenodd" d="M5.58409 0.249392C6.85433 -0.0778842 8.19033 -0.0476306 9.44445 0.33681C10.6986 0.721251 11.822 1.44491 12.6906 2.42784C13.5592 3.41076 14.1392 4.61468 14.3665 5.90657C14.5937 7.19846 14.4594 8.52803 13.9784 9.74838L18.6522 13.7047C19.0066 14.0042 19.2951 14.3741 19.4992 14.7909C19.7034 15.2076 19.8188 15.6622 19.8382 16.1259C19.8576 16.5896 19.7806 17.0523 19.612 17.4846C19.4434 17.917 19.1868 18.3097 18.8586 18.6378C18.5304 18.9659 18.1377 19.2224 17.7053 19.3909C17.2729 19.5594 16.8102 19.6364 16.3465 19.6169C15.8829 19.5974 15.4283 19.4818 15.0116 19.2776C14.5948 19.0733 14.225 18.7848 13.9256 18.4303L9.97128 13.7585C8.75079 14.2404 7.42083 14.3753 6.12844 14.1484C4.83605 13.9215 3.63158 13.3416 2.6482 12.4729C1.66482 11.6041 0.940831 10.4804 0.556287 9.22582C0.171743 7.97127 0.14162 6.63482 0.46925 5.36423C0.515445 5.1857 0.608885 5.02291 0.739747 4.89298C0.870608 4.76305 1.03406 4.67077 1.21291 4.62585C1.39177 4.58093 1.57942 4.58502 1.75615 4.6377C1.93288 4.69037 2.09215 4.78969 2.21722 4.9252L5.31173 8.28598L7.64608 7.42724L8.50685 5.08984L5.14405 2.00041C5.00772 1.87538 4.90772 1.71583 4.85461 1.53864C4.8015 1.36144 4.79727 1.17319 4.84235 0.993791C4.88744 0.814389 4.98017 0.650505 5.11073 0.519471C5.2413 0.388436 5.40485 0.29512 5.58409 0.249392Z" fill="currentColor"/></svg>