<svg width="29" height="22" viewBox="0 0 29 22" fill="none" xmlns="http://www.w3.org/2000/svg"><path d="M27.8807 3.54679L10.5449 21.1493C10.3939 21.3031 10.2145 21.4252 10.0169 21.5085C9.81935 21.5917 9.60755 21.6346 9.39365 21.6346C9.17974 21.6346 8.96794 21.5917 8.77039 21.5085C8.57284 21.4252 8.39343 21.3031 8.24244 21.1493L0.657999 13.4482C0.50682 13.2947 0.386898 13.1124 0.305081 12.9119C0.223263 12.7113 0.181152 12.4964 0.181152 12.2793C0.181152 12.0622 0.223263 11.8472 0.305081 11.6467C0.386898 11.4461 0.50682 11.2639 0.657999 11.1104C0.809178 10.9568 0.988653 10.8351 1.18618 10.752C1.3837 10.6689 1.59541 10.6262 1.80921 10.6262C2.02301 10.6262 2.23471 10.6689 2.43224 10.752C2.62976 10.8351 2.80924 10.9568 2.96042 11.1104L9.395 17.6439L25.581 1.21172C25.8863 0.901703 26.3004 0.727539 26.7322 0.727539C27.164 0.727539 27.5781 0.901703 27.8834 1.21172C28.1887 1.52173 28.3603 1.9422 28.3603 2.38063C28.3603 2.81906 28.1887 3.23953 27.8834 3.54955L27.8807 3.54679Z" fill="currentColor"/></svg>