<svg width="89" height="79" viewBox="0 0 89 79" fill="none" xmlns="http://www.w3.org/2000/svg"><g filter="url(#filter0_dddd_1757_9674)"><path d="M78.5312 19.8438H69.25V10.5625C69.25 8.92147 68.5981 7.34766 67.4377 6.18728C66.2773 5.0269 64.7035 4.375 63.0625 4.375H25.9375C24.2965 4.375 22.7227 5.0269 21.5623 6.18728C20.4019 7.34766 19.75 8.92147 19.75 10.5625V19.8438H10.4688C8.00721 19.8438 5.64649 20.8216 3.90592 22.5622C2.16534 24.3027 1.1875 26.6635 1.1875 29.125V72.4375C1.1875 74.0785 1.8394 75.6523 2.99978 76.8127C4.16016 77.9731 5.73397 78.625 7.375 78.625H81.625C83.266 78.625 84.8398 77.9731 86.0002 76.8127C87.1606 75.6523 87.8125 74.0785 87.8125 72.4375V29.125C87.8125 26.6635 86.8347 24.3027 85.0941 22.5622C83.3535 20.8216 80.9928 19.8438 78.5312 19.8438ZM25.9375 10.5625H63.0625V19.8438H25.9375V10.5625ZM81.625 72.4375H7.375V44.5938H32.125V60.0625H56.875V44.5938H81.625V72.4375ZM38.3125 44.5938H50.6875V53.875H38.3125V44.5938ZM7.375 38.4062V29.125C7.375 28.3045 7.70095 27.5176 8.28114 26.9374C8.86133 26.3572 9.64824 26.0312 10.4688 26.0312H78.5312C79.3518 26.0312 80.1387 26.3572 80.7189 26.9374C81.2991 27.5176 81.625 28.3045 81.625 29.125V38.4062H7.375Z" fill="url(#paint0_linear_1757_9674)"/></g><defs><filter id="filter0_dddd_1757_9674" x="0.1875" y="0.375" width="88.625" height="78.25" filterUnits="userSpaceOnUse" color-interpolation-filters="sRGB"><feFlood flood-opacity="0" result="BackgroundImageFix"/><feColorMatrix in="SourceAlpha" type="matrix" values="0 0 0 0 0 0 0 0 0 0 0 0 0 0 0 0 0 0 127 0" result="hardAlpha"/><feOffset dy="-1"/><feGaussianBlur stdDeviation="0.5"/><feColorMatrix type="matrix" values="0 0 0 0 0 0 0 0 0 0 0 0 0 0 0 0 0 0 0.26 0"/><feBlend mode="normal" in2="BackgroundImageFix" result="effect1_dropShadow_1757_9674"/><feColorMatrix in="SourceAlpha" type="matrix" values="0 0 0 0 0 0 0 0 0 0 0 0 0 0 0 0 0 0 127 0" result="hardAlpha"/><feOffset dy="-1"/><feGaussianBlur stdDeviation="0.5"/><feColorMatrix type="matrix" values="0 0 0 0 0 0 0 0 0 0 0 0 0 0 0 0 0 0 0.15 0"/><feBlend mode="normal" in2="effect1_dropShadow_1757_9674" result="effect2_dropShadow_1757_9674"/><feColorMatrix in="SourceAlpha" type="matrix" values="0 0 0 0 0 0 0 0 0 0 0 0 0 0 0 0 0 0 127 0" result="hardAlpha"/><feOffset dy="-2"/><feGaussianBlur stdDeviation="0.5"/><feColorMatrix type="matrix" values="0 0 0 0 0 0 0 0 0 0 0 0 0 0 0 0 0 0 0.05 0"/><feBlend mode="normal" in2="effect2_dropShadow_1757_9674" result="effect3_dropShadow_1757_9674"/><feColorMatrix in="SourceAlpha" type="matrix" values="0 0 0 0 0 0 0 0 0 0 0 0 0 0 0 0 0 0 127 0" result="hardAlpha"/><feOffset dy="-3"/><feGaussianBlur stdDeviation="0.5"/><feColorMatrix type="matrix" values="0 0 0 0 0 0 0 0 0 0 0 0 0 0 0 0 0 0 0.01 0"/><feBlend mode="normal" in2="effect3_dropShadow_1757_9674" result="effect4_dropShadow_1757_9674"/><feBlend mode="normal" in="SourceGraphic" in2="effect4_dropShadow_1757_9674" result="shape"/></filter><linearGradient id="paint0_linear_1757_9674" x1="32.5038" y1="21.2063" x2="46.1272" y2="67.955" gradientUnits="userSpaceOnUse"><stop stop-color="#72936E"/><stop offset="1" stop-color="#637B60"/></linearGradient></defs></svg>