<svg width="107" height="109" viewBox="0 0 107 109" fill="none" xmlns="http://www.w3.org/2000/svg"><g filter="url(#filter0_dddd_1757_9658)"><path d="M37 23.5H38.8528C40.198 23.5 40.8711 23.5 41.5041 23.652C42.0653 23.7867 42.6041 24.0095 43.0962 24.311C43.6511 24.6511 44.1275 25.1275 45.0781 26.0781L61.9232 42.9232C62.8744 43.8744 63.3474 44.3474 63.6875 44.9024C63.9891 45.3945 64.2149 45.9324 64.3496 46.4936C64.5 47.1202 64.5 47.7854 64.5 49.1033V89.5M37 23.5H12.7979C9.71756 23.5 8.17896 23.5 7.00244 24.0995C5.96755 24.6268 5.12677 25.4675 4.59946 26.5024C4 27.679 4 29.2202 4 32.3005V97.2005C4 100.281 4 101.819 4.59946 102.995C5.12677 104.03 5.96755 104.874 7.00244 105.401C8.17783 106 9.71461 106 12.789 106L55.7058 106C58.7801 106 60.3226 106 61.498 105.401C62.5329 104.874 63.3711 104.032 63.8984 102.997C64.4979 101.82 64.5 100.279 64.5 97.1992V89.5M37 23.5V42.2C37 45.2803 37 46.8194 37.5995 47.9959C38.1268 49.0308 38.9676 49.8738 40.0024 50.4011C41.1778 51 42.7146 51 45.7888 51H64.4979M42.5 23.5005V15.8005C42.5 12.7202 42.5 11.179 43.0995 10.0024C43.6268 8.96755 44.4675 8.12677 45.5024 7.59946C46.679 7 48.2176 7 51.2978 7H75.5M75.5 7H77.3528C78.698 7 79.3711 7 80.0041 7.15197C80.5653 7.2867 81.1041 7.50948 81.5962 7.81104C82.151 8.15105 82.6275 8.62754 83.5781 9.57812L100.423 26.4232C101.374 27.3744 101.847 27.8474 102.187 28.4024C102.489 28.8945 102.715 29.4324 102.85 29.9936C103 30.6202 103 31.2853 103 32.6033V80.6992C103 83.7795 102.998 85.3201 102.398 86.4967C101.871 87.5315 101.036 88.3738 100.001 88.9011C98.8259 89.5 97.2854 89.5 94.2112 89.5H64.5M75.5 7V25.7C75.5 28.7803 75.5 30.3194 76.0995 31.4959C76.6268 32.5308 77.4675 33.3738 78.5024 33.9011C79.6778 34.5 81.2146 34.5 84.2888 34.5H102.998" stroke="url(#paint0_linear_1757_9658)" stroke-width="5" stroke-linecap="round" stroke-linejoin="round"/></g><defs><filter id="filter0_dddd_1757_9658" x="0.5" y="0.499756" width="106" height="108" filterUnits="userSpaceOnUse" color-interpolation-filters="sRGB"><feFlood flood-opacity="0" result="BackgroundImageFix"/><feColorMatrix in="SourceAlpha" type="matrix" values="0 0 0 0 0 0 0 0 0 0 0 0 0 0 0 0 0 0 127 0" result="hardAlpha"/><feOffset dy="-1"/><feGaussianBlur stdDeviation="0.5"/><feColorMatrix type="matrix" values="0 0 0 0 0 0 0 0 0 0 0 0 0 0 0 0 0 0 0.26 0"/><feBlend mode="normal" in2="BackgroundImageFix" result="effect1_dropShadow_1757_9658"/><feColorMatrix in="SourceAlpha" type="matrix" values="0 0 0 0 0 0 0 0 0 0 0 0 0 0 0 0 0 0 127 0" result="hardAlpha"/><feOffset dy="-1"/><feGaussianBlur stdDeviation="0.5"/><feColorMatrix type="matrix" values="0 0 0 0 0 0 0 0 0 0 0 0 0 0 0 0 0 0 0.15 0"/><feBlend mode="normal" in2="effect1_dropShadow_1757_9658" result="effect2_dropShadow_1757_9658"/><feColorMatrix in="SourceAlpha" type="matrix" values="0 0 0 0 0 0 0 0 0 0 0 0 0 0 0 0 0 0 127 0" result="hardAlpha"/><feOffset dy="-2"/><feGaussianBlur stdDeviation="0.5"/><feColorMatrix type="matrix" values="0 0 0 0 0 0 0 0 0 0 0 0 0 0 0 0 0 0 0.05 0"/><feBlend mode="normal" in2="effect2_dropShadow_1757_9658" result="effect3_dropShadow_1757_9658"/><feColorMatrix in="SourceAlpha" type="matrix" values="0 0 0 0 0 0 0 0 0 0 0 0 0 0 0 0 0 0 127 0" result="hardAlpha"/><feOffset dy="-3"/><feGaussianBlur stdDeviation="0.5"/><feColorMatrix type="matrix" values="0 0 0 0 0 0 0 0 0 0 0 0 0 0 0 0 0 0 0.01 0"/><feBlend mode="normal" in2="effect3_dropShadow_1757_9658" result="effect4_dropShadow_1757_9658"/><feBlend mode="normal" in="SourceGraphic" in2="effect4_dropShadow_1757_9658" result="shape"/></filter><linearGradient id="paint0_linear_1757_9658" x1="39.7901" y1="29.4417" x2="60.3994" y2="90.0599" gradientUnits="userSpaceOnUse"><stop stop-color="#72936E"/><stop offset="1" stop-color="#637B60"/></linearGradient></defs></svg>