<svg width="103" height="103" viewBox="0 0 103 103" fill="none" xmlns="http://www.w3.org/2000/svg"><path d="M71.2786 99.5199C70.3306 100.468 69.045 101 67.7045 101C66.3641 101 65.0785 100.468 64.1305 99.5199L56.1129 91.5024C55.1652 90.5544 54.6328 89.2688 54.6328 87.9284C54.6328 86.5879 55.1652 85.3023 56.1129 84.3543L84.3514 56.1161C85.2994 55.1684 86.585 54.636 87.9254 54.636C89.2659 54.636 90.5515 55.1684 91.4995 56.1161L99.517 64.1336C100.465 65.0816 100.997 66.3672 100.997 67.7076C100.997 69.0481 100.465 70.3336 99.517 71.2816L71.2786 99.5199Z" stroke="url(#paint0_linear_1757_8998)" stroke-width="4" stroke-linecap="round" stroke-linejoin="round"/><path d="M82.8836 57.6071L75.9326 22.8577C75.7436 21.9123 75.2881 21.0407 74.6199 20.3456C73.9517 19.6506 73.0987 19.1611 72.1614 18.9349L8.24323 2.14158C7.40117 1.93799 6.52092 1.95421 5.68693 2.1887C4.85295 2.42318 4.09322 2.86805 3.48064 3.48063C2.86806 4.09321 2.42318 4.85293 2.1887 5.68691C1.95421 6.52089 1.93799 7.40113 2.14158 8.24318L18.935 72.1609C19.1612 73.0982 19.6507 73.9512 20.3457 74.6194C21.0408 75.2876 21.9124 75.743 22.8579 75.9321L57.6075 82.883M3.5166 3.51659L40.3489 40.3487" stroke="url(#paint1_linear_1757_8998)" stroke-width="4" stroke-linecap="round" stroke-linejoin="round"/><path d="M47.5089 57.6211C53.0927 57.6211 57.6193 53.0946 57.6193 47.5108C57.6193 41.927 53.0927 37.4004 47.5089 37.4004C41.925 37.4004 37.3984 41.927 37.3984 47.5108C37.3984 53.0946 41.925 57.6211 47.5089 57.6211Z" stroke="url(#paint2_linear_1757_8998)" stroke-width="4" stroke-linecap="round" stroke-linejoin="round"/><defs><linearGradient id="paint0_linear_1757_8998" x1="71.3943" y1="65.146" x2="81.0461" y2="93.5349" gradientUnits="userSpaceOnUse"><stop stop-color="#72936E"/><stop offset="1" stop-color="#637B60"/></linearGradient><linearGradient id="paint1_linear_1757_8998" x1="31.2407" y1="20.3349" x2="48.0785" y2="69.86" gradientUnits="userSpaceOnUse"><stop stop-color="#72936E"/><stop offset="1" stop-color="#637B60"/></linearGradient><linearGradient id="paint2_linear_1757_8998" x1="44.7086" y1="41.9841" x2="48.918" y2="54.3654" gradientUnits="userSpaceOnUse"><stop stop-color="#72936E"/><stop offset="1" stop-color="#637B60"/></linearGradient></defs></svg>