<svg width="99" height="99" viewBox="0 0 99 99" fill="none" xmlns="http://www.w3.org/2000/svg"><g clip-path="url(#clip0_1757_9641)"><path fill-rule="evenodd" clip-rule="evenodd" d="M71.1562 86.625C86.5631 86.625 99 80.4375 99 71.1562V12.375C99 6.1875 86.625 0 71.1562 0C55.6875 0 43.3125 6.1875 43.3125 12.375V34.0312C50.5519 37.0631 56.7394 42.1369 61.1325 48.5719C64.1644 49.1659 67.5056 49.4938 71.1562 49.4938C79.2619 49.4938 86.0063 47.8789 90.8325 45.2492C91.5177 44.8726 92.1846 44.4638 92.8311 44.0241V52.5628C92.8311 54.0169 91.674 56.2753 87.8687 58.3543C84.1809 60.3652 78.5256 61.8441 71.1624 61.8441C69.6898 61.8441 68.2873 61.7884 66.9549 61.677C67.4499 63.7189 67.7799 65.802 67.9449 67.9264C68.9886 67.9841 70.0611 68.013 71.1624 68.013C79.2681 68.013 86.0124 66.3981 90.8387 63.7684C91.5238 63.3918 92.1908 62.983 92.8372 62.5432V71.082C92.8372 72.5423 91.9153 74.7079 87.9429 76.8487C84.0324 78.9525 78.1667 80.3633 71.1748 80.3633C69.7517 80.3633 68.3739 80.3055 67.0416 80.19C66.5659 82.2466 65.9265 84.2619 65.1296 86.2166C67.0766 86.4352 69.0896 86.5446 71.1686 86.5446L71.1562 86.625ZM87.8625 39.8475C91.6678 37.7685 92.8249 35.5101 92.8249 34.056V25.5173C92.1855 25.9545 91.5193 26.3629 90.8263 26.7424C86.0124 29.3721 79.2557 30.987 71.1501 30.987C63.0444 30.987 56.3001 29.3721 51.4738 26.7424C50.7887 26.3658 50.1217 25.957 49.4752 25.5173V34.056C49.4752 35.5101 50.6323 37.7685 54.4376 39.8413C58.1254 41.8522 63.7808 43.3311 71.1439 43.3311C78.507 43.3311 84.1376 41.8522 87.8501 39.8413L87.8625 39.8475ZM49.5 15.4688C49.5 13.6868 50.2734 11.9728 51.7151 10.9271C52.5009 10.3579 53.3548 9.78862 54.0293 9.47925C55.7184 8.69963 64.1767 6.18131 71.1686 6.18131C78.1605 6.18131 84.2243 7.58587 88.308 9.47925C89.0753 9.83194 89.9229 10.3826 90.6716 10.9271C92.1009 11.9604 92.8372 13.662 92.8372 15.4254V15.4626C92.8372 16.9166 91.6802 19.1751 87.8749 21.2541C84.1871 23.265 78.5317 24.7438 71.1686 24.7438C63.8055 24.7438 58.1749 23.2588 54.4624 21.2541C50.6571 19.1812 49.5 16.9166 49.5 15.4688Z" fill="url(#paint0_linear_1757_9641)"/><path fill-rule="evenodd" clip-rule="evenodd" d="M55.6875 71.1562C55.6875 86.5631 43.2506 99 27.8438 99C12.4369 99 0 86.5631 0 71.1562C0 55.7494 12.4369 43.3125 27.8438 43.3125C43.2506 43.3125 55.6875 55.7494 55.6875 71.1562ZM49.5 71.1562C49.5 83.0981 39.7856 92.8125 27.8438 92.8125C15.9019 92.8125 6.1875 83.0981 6.1875 71.1562C6.1875 59.2144 15.9019 49.5 27.8438 49.5C39.7856 49.5 49.5 59.2144 49.5 71.1562Z" fill="url(#paint1_linear_1757_9641)"/></g><defs><linearGradient id="paint0_linear_1757_9641" x1="63.4444" y1="19.6365" x2="87.8987" y2="65.8754" gradientUnits="userSpaceOnUse"><stop stop-color="#72936E"/><stop offset="1" stop-color="#637B60"/></linearGradient><linearGradient id="paint1_linear_1757_9641" x1="20.1319" y1="55.936" x2="31.7247" y2="90.0337" gradientUnits="userSpaceOnUse"><stop stop-color="#72936E"/><stop offset="1" stop-color="#637B60"/></linearGradient><clipPath id="clip0_1757_9641"><rect width="99" height="99" fill="white"/></clipPath></defs></svg>