<svg width="22" height="27" viewBox="0 0 22 27" fill="none" xmlns="http://www.w3.org/2000/svg"><path d="M20.25 13.5001V21.2084C20.25 23.7627 16.1086 25.8334 11 25.8334C5.89137 25.8334 1.75 23.7627 1.75 21.2084V13.5001M20.25 13.5001V5.79175M20.25 13.5001C20.25 16.0544 16.1086 18.1251 11 18.1251C5.89137 18.1251 1.75 16.0544 1.75 13.5001M20.25 5.79175C20.25 3.23743 16.1086 1.16675 11 1.16675C5.89137 1.16675 1.75 3.23743 1.75 5.79175M20.25 5.79175C20.25 8.34606 16.1086 10.4167 11 10.4167C5.89137 10.4167 1.75 8.34606 1.75 5.79175M1.75 13.5001V5.79175" stroke="currentColor" stroke-width="2" stroke-linecap="round" stroke-linejoin="round"/></svg>