<svg width="31" height="31" viewBox="0 0 31 31" fill="none" xmlns="http://www.w3.org/2000/svg"><path d="M20.125 12.4167L13.9583 18.5833L10.875 15.5M8.30309 3.07031L3.07031 8.30309L3.06556 8.30755C2.53546 8.83765 2.26978 9.10333 2.07967 9.41356C1.91062 9.68943 1.78572 9.99054 1.71019 10.3052C1.625 10.66 1.625 11.037 1.625 11.7911V19.2089C1.625 19.963 1.625 20.3401 1.71019 20.695C1.78572 21.0096 1.91062 21.3102 2.07967 21.5861C2.27029 21.8972 2.53739 22.1643 3.07031 22.6972L8.30309 27.93C8.83635 28.4632 9.10241 28.7293 9.41357 28.92C9.68944 29.089 9.98979 29.2144 10.3044 29.2899C10.6587 29.375 11.0351 29.375 11.7869 29.375H19.2116C19.9634 29.375 20.3414 29.375 20.6957 29.2899C21.0103 29.2144 21.311 29.089 21.5869 28.92C21.898 28.7293 22.1647 28.4632 22.698 27.93L27.9307 22.6972C28.464 22.1639 28.7301 21.8973 28.9207 21.5861C29.0898 21.3102 29.2137 21.0096 29.2892 20.6949C29.3744 20.3401 29.375 19.9631 29.375 19.2089V11.7911C29.375 11.037 29.3744 10.66 29.2892 10.3052C29.2137 9.99054 29.0898 9.68944 28.9207 9.41357C28.7301 9.10242 28.464 8.83631 27.9307 8.30308L22.698 3.07031C22.165 2.53738 21.8979 2.27029 21.5869 2.07967C21.311 1.91062 21.0103 1.78572 20.6957 1.71019C20.3409 1.625 19.9623 1.625 19.2081 1.625H11.7904C11.0362 1.625 10.6593 1.625 10.3044 1.71019C9.98979 1.78572 9.68944 1.91062 9.41356 2.07967C9.10523 2.26862 8.84163 2.53222 8.31799 3.05587L8.30309 3.07031Z" stroke="currentColor" stroke-width="2" stroke-linecap="round" stroke-linejoin="round"/></svg>