<svg width="35" height="35" viewBox="0 0 35 35" fill="none" xmlns="http://www.w3.org/2000/svg"><rect x="0.5" y="0.5" width="34" height="34" rx="17" stroke="currentColor"/><path d="M17.1095 16.4717C14.9704 15.9201 14.2825 15.3499 14.2825 14.4618C14.2825 13.4429 15.2343 12.7324 16.8268 12.7324C18.1648 12.7324 18.8339 13.2372 19.0789 14.0411C19.192 14.4151 19.5029 14.6955 19.8987 14.6955H20.1814C20.8033 14.6955 21.2462 14.0879 21.0295 13.5083C20.6337 12.4052 19.7102 11.4891 18.2402 11.1338V10.4888C18.2402 9.71288 17.6089 9.08655 16.8268 9.08655C16.0447 9.08655 15.4133 9.71288 15.4133 10.4888V11.1058C13.5852 11.4984 12.1152 12.6763 12.1152 14.4805C12.1152 16.64 13.915 17.715 16.5441 18.3414C18.8998 18.9023 19.371 19.7249 19.371 20.5943C19.371 21.2393 18.9093 22.2676 16.8268 22.2676C15.272 22.2676 14.471 21.7161 14.16 20.9308C14.0187 20.5662 13.6983 20.3045 13.312 20.3045H13.0481C12.4168 20.3045 11.9739 20.9402 12.2095 21.5198C12.7466 22.8192 13.9998 23.5857 15.4133 23.8849V24.5112C15.4133 25.2871 16.0447 25.9135 16.8268 25.9135C17.6089 25.9135 18.2402 25.2871 18.2402 24.5112V23.9036C20.0777 23.5577 21.5383 22.5013 21.5383 20.5849C21.5383 17.93 19.2485 17.0232 17.1095 16.4717Z" fill="currentColor"/></svg>