<svg width="43" height="43" viewBox="0 0 43 43" fill="none" xmlns="http://www.w3.org/2000/svg"><g clip-path="url(#clip0_36_14)"><rect width="43" height="43" rx="21.5" fill="#786F69"/><g clip-path="url(#clip1_36_14)"><g filter="url(#filter0_dddd_36_14)"><path d="M19.5012 13.2572C19.1975 12.4979 18.4621 12 17.6443 12H14.8935C13.8471 12 12.9988 12.8481 12.9988 13.8945C12.9988 22.7892 20.2096 30 29.1042 30C30.1507 30 30.9988 29.1516 30.9988 28.1052L30.9992 25.354C30.9992 24.5362 30.5015 23.8009 29.7422 23.4971L27.1057 22.4429C26.4236 22.1701 25.6471 22.2929 25.0827 22.7632L24.4023 23.3307C23.6076 23.9929 22.4384 23.9402 21.707 23.2088L19.791 21.2911C19.0596 20.5596 19.0055 19.3913 19.6677 18.5967L20.2351 17.9163C20.7054 17.352 20.8293 16.5752 20.5564 15.8931L19.5012 13.2572Z" stroke="currentColor" stroke-width="2" stroke-linecap="round" stroke-linejoin="round"/></g></g><rect x="0.5" y="0.5" width="42" height="42" rx="21" stroke="currentColor" stroke-opacity="0.6"/></g><rect x="0.5" y="0.5" width="42" height="42" rx="21" stroke="currentColor" stroke-opacity="0.33"/><defs><filter id="filter0_dddd_36_14" x="8" y="8" width="36" height="41" filterUnits="userSpaceOnUse" color-interpolation-filters="sRGB"><feFlood flood-opacity="0" result="BackgroundImageFix"/><feColorMatrix in="SourceAlpha" type="matrix" values="0 0 0 0 0 0 0 0 0 0 0 0 0 0 0 0 0 0 127 0" result="hardAlpha"/><feOffset dy="1"/><feGaussianBlur stdDeviation="1"/><feColorMatrix type="matrix" values="0 0 0 0 0 0 0 0 0 0 0 0 0 0 0 0 0 0 0.26 0"/><feBlend mode="normal" in2="BackgroundImageFix" result="effect1_dropShadow_36_14"/><feColorMatrix in="SourceAlpha" type="matrix" values="0 0 0 0 0 0 0 0 0 0 0 0 0 0 0 0 0 0 127 0" result="hardAlpha"/><feOffset dx="1" dy="3"/><feGaussianBlur stdDeviation="1.5"/><feColorMatrix type="matrix" values="0 0 0 0 0 0 0 0 0 0 0 0 0 0 0 0 0 0 0.22 0"/><feBlend mode="normal" in2="effect1_dropShadow_36_14" result="effect2_dropShadow_36_14"/><feColorMatrix in="SourceAlpha" type="matrix" values="0 0 0 0 0 0 0 0 0 0 0 0 0 0 0 0 0 0 127 0" result="hardAlpha"/><feOffset dx="3" dy="6"/><feGaussianBlur stdDeviation="2"/><feColorMatrix type="matrix" values="0 0 0 0 0 0 0 0 0 0 0 0 0 0 0 0 0 0 0.13 0"/><feBlend mode="normal" in2="effect2_dropShadow_36_14" result="effect3_dropShadow_36_14"/><feColorMatrix in="SourceAlpha" type="matrix" values="0 0 0 0 0 0 0 0 0 0 0 0 0 0 0 0 0 0 127 0" result="hardAlpha"/><feOffset dx="5" dy="11"/><feGaussianBlur stdDeviation="2.5"/><feColorMatrix type="matrix" values="0 0 0 0 0 0 0 0 0 0 0 0 0 0 0 0 0 0 0.04 0"/><feBlend mode="normal" in2="effect3_dropShadow_36_14" result="effect4_dropShadow_36_14"/><feBlend mode="normal" in="SourceGraphic" in2="effect4_dropShadow_36_14" result="shape"/></filter><clipPath id="clip0_36_14"><rect width="43" height="43" rx="21.5" fill="currentColor"/></clipPath><clipPath id="clip1_36_14"><rect width="43" height="43" rx="21.5" fill="currentColor"/></clipPath></defs></svg>