<svg width="43" height="43" viewBox="0 0 43 43" fill="none" xmlns="http://www.w3.org/2000/svg"><g clip-path="url(#clip0_36_5)"><rect width="43" height="43" rx="21.5" fill="#786F69"/><g clip-path="url(#clip1_36_5)"><g filter="url(#filter0_dddd_36_5)"><path d="M26 28C26 25.7909 23.3137 24 20 24C16.6863 24 14 25.7909 14 28M32 19L28 23L26 21M20 21C17.7909 21 16 19.2091 16 17C16 14.7909 17.7909 13 20 13C22.2091 13 24 14.7909 24 17C24 19.2091 22.2091 21 20 21Z" stroke="white" stroke-width="2" stroke-linecap="round" stroke-linejoin="round"/></g></g><rect x="0.5" y="0.5" width="42" height="42" rx="21" stroke="white" stroke-opacity="0.6"/></g><rect x="0.5" y="0.5" width="42" height="42" rx="21" stroke="white" stroke-opacity="0.33"/><defs><filter id="filter0_dddd_36_5" x="11" y="11" width="32" height="34" filterUnits="userSpaceOnUse" color-interpolation-filters="sRGB"><feFlood flood-opacity="0" result="BackgroundImageFix"/><feColorMatrix in="SourceAlpha" type="matrix" values="0 0 0 0 0 0 0 0 0 0 0 0 0 0 0 0 0 0 127 0" result="hardAlpha"/><feOffset dy="1"/><feGaussianBlur stdDeviation="1"/><feColorMatrix type="matrix" values="0 0 0 0 0 0 0 0 0 0 0 0 0 0 0 0 0 0 0.26 0"/><feBlend mode="normal" in2="BackgroundImageFix" result="effect1_dropShadow_36_5"/><feColorMatrix in="SourceAlpha" type="matrix" values="0 0 0 0 0 0 0 0 0 0 0 0 0 0 0 0 0 0 127 0" result="hardAlpha"/><feOffset dx="1" dy="3"/><feGaussianBlur stdDeviation="1.5"/><feColorMatrix type="matrix" values="0 0 0 0 0 0 0 0 0 0 0 0 0 0 0 0 0 0 0.22 0"/><feBlend mode="normal" in2="effect1_dropShadow_36_5" result="effect2_dropShadow_36_5"/><feColorMatrix in="SourceAlpha" type="matrix" values="0 0 0 0 0 0 0 0 0 0 0 0 0 0 0 0 0 0 127 0" result="hardAlpha"/><feOffset dx="3" dy="6"/><feGaussianBlur stdDeviation="2"/><feColorMatrix type="matrix" values="0 0 0 0 0 0 0 0 0 0 0 0 0 0 0 0 0 0 0.13 0"/><feBlend mode="normal" in2="effect2_dropShadow_36_5" result="effect3_dropShadow_36_5"/><feColorMatrix in="SourceAlpha" type="matrix" values="0 0 0 0 0 0 0 0 0 0 0 0 0 0 0 0 0 0 127 0" result="hardAlpha"/><feOffset dx="5" dy="11"/><feGaussianBlur stdDeviation="2.5"/><feColorMatrix type="matrix" values="0 0 0 0 0 0 0 0 0 0 0 0 0 0 0 0 0 0 0.04 0"/><feBlend mode="normal" in2="effect3_dropShadow_36_5" result="effect4_dropShadow_36_5"/><feBlend mode="normal" in="SourceGraphic" in2="effect4_dropShadow_36_5" result="shape"/></filter><clipPath id="clip0_36_5"><rect width="43" height="43" rx="21.5" fill="currentColor"/></clipPath><clipPath id="clip1_36_5"><rect width="43" height="43" rx="21.5" fill="currentColor"/></clipPath></defs></svg>