<svg width="43" height="43" viewBox="0 0 43 43" fill="none" xmlns="http://www.w3.org/2000/svg"><g clip-path="url(#clip0_36_9)"><rect width="43" height="43" rx="21.5" fill="#786F69"/><rect x="0.5" y="0.5" width="42" height="42" rx="21" stroke="currentColor" stroke-opacity="0.6"/><g filter="url(#filter0_dddd_36_9)"><path d="M16.167 24.5H18.5003C18.5003 25.76 20.0987 26.8333 22.0003 26.8333C23.902 26.8333 25.5003 25.76 25.5003 24.5C25.5003 23.2167 24.287 22.75 21.7203 22.1317C19.247 21.5133 16.167 20.7433 16.167 17.5C16.167 15.4117 17.882 13.6383 20.2503 13.0433V10.5H23.7503V13.0433C26.1187 13.6383 27.8337 15.4117 27.8337 17.5H25.5003C25.5003 16.24 23.902 15.1667 22.0003 15.1667C20.0987 15.1667 18.5003 16.24 18.5003 17.5C18.5003 18.7833 19.7137 19.25 22.2803 19.8683C24.7537 20.4867 27.8337 21.2567 27.8337 24.5C27.8337 26.5883 26.1187 28.3617 23.7503 28.9567V31.5H20.2503V28.9567C17.882 28.3617 16.167 26.5883 16.167 24.5Z" fill="currentColor"/></g></g><rect x="0.5" y="0.5" width="42" height="42" rx="21" stroke="currentColor" stroke-opacity="0.33"/><defs><filter id="filter0_dddd_36_9" x="6" y="6" width="40" height="45" filterUnits="userSpaceOnUse" color-interpolation-filters="sRGB"><feFlood flood-opacity="0" result="BackgroundImageFix"/><feColorMatrix in="SourceAlpha" type="matrix" values="0 0 0 0 0 0 0 0 0 0 0 0 0 0 0 0 0 0 127 0" result="hardAlpha"/><feOffset dy="1"/><feGaussianBlur stdDeviation="1"/><feColorMatrix type="matrix" values="0 0 0 0 0 0 0 0 0 0 0 0 0 0 0 0 0 0 0.26 0"/><feBlend mode="normal" in2="BackgroundImageFix" result="effect1_dropShadow_36_9"/><feColorMatrix in="SourceAlpha" type="matrix" values="0 0 0 0 0 0 0 0 0 0 0 0 0 0 0 0 0 0 127 0" result="hardAlpha"/><feOffset dx="1" dy="3"/><feGaussianBlur stdDeviation="1.5"/><feColorMatrix type="matrix" values="0 0 0 0 0 0 0 0 0 0 0 0 0 0 0 0 0 0 0.22 0"/><feBlend mode="normal" in2="effect1_dropShadow_36_9" result="effect2_dropShadow_36_9"/><feColorMatrix in="SourceAlpha" type="matrix" values="0 0 0 0 0 0 0 0 0 0 0 0 0 0 0 0 0 0 127 0" result="hardAlpha"/><feOffset dx="3" dy="6"/><feGaussianBlur stdDeviation="2"/><feColorMatrix type="matrix" values="0 0 0 0 0 0 0 0 0 0 0 0 0 0 0 0 0 0 0.13 0"/><feBlend mode="normal" in2="effect2_dropShadow_36_9" result="effect3_dropShadow_36_9"/><feColorMatrix in="SourceAlpha" type="matrix" values="0 0 0 0 0 0 0 0 0 0 0 0 0 0 0 0 0 0 127 0" result="hardAlpha"/><feOffset dx="5" dy="11"/><feGaussianBlur stdDeviation="2.5"/><feColorMatrix type="matrix" values="0 0 0 0 0 0 0 0 0 0 0 0 0 0 0 0 0 0 0.04 0"/><feBlend mode="normal" in2="effect3_dropShadow_36_9" result="effect4_dropShadow_36_9"/><feBlend mode="normal" in="SourceGraphic" in2="effect4_dropShadow_36_9" result="shape"/></filter><clipPath id="clip0_36_9"><rect width="43" height="43" rx="21.5" fill="currentColor"/></clipPath></defs></svg>