<svg width="55" height="49" viewBox="0 0 55 49" fill="none" xmlns="http://www.w3.org/2000/svg"><path d="M16.0625 13.2499H11.0005C7.85025 13.2499 6.27393 13.2499 5.07068 13.863C4.01227 14.4023 3.15238 15.2622 2.61309 16.3206C2 17.5238 2 19.1002 2 22.2505V38.0005C2 41.1508 2 42.7251 2.61309 43.9283C3.15238 44.9867 4.01227 45.8481 5.07068 46.3874C6.27276 46.9999 7.84717 46.9999 10.9913 46.9999H43.6337C46.7778 46.9999 48.35 46.9999 49.5521 46.3874C50.6105 45.8481 51.4732 44.9867 52.0125 43.9283C52.625 42.7263 52.625 41.1541 52.625 38.01V22.2412C52.625 19.0971 52.625 17.5227 52.0125 16.3206C51.4732 15.2622 50.6105 14.4023 49.5521 13.863C48.3488 13.2499 46.7758 13.2499 43.6256 13.2499H38.5625M16.0625 13.2499H38.5625M16.0625 13.2499C16.0625 7.0367 21.0993 1.99991 27.3125 1.99991C33.5257 1.99991 38.5625 7.0367 38.5625 13.2499" stroke="currentColor" stroke-width="4" stroke-linecap="round" stroke-linejoin="round"/></svg>