<svg width="61" height="60" viewBox="0 0 61 60" fill="none" xmlns="http://www.w3.org/2000/svg"><mask id="mask0_85_40" style="mask-type:luminance" maskUnits="userSpaceOnUse" x="-1" y="0" width="62" height="60"><path d="M-0.000213623 2.28882e-05H60.0325V60H-0.000213623V2.28882e-05Z" fill="white"/></mask><g mask="url(#mask0_85_40)"><path d="M29.9437 59.9269C30.4353 59.9269 30.9269 59.9151 31.4179 59.8909C31.9095 59.8668 32.4 59.8308 32.8894 59.7824C33.3789 59.7341 33.8667 59.6739 34.3529 59.6019C34.8396 59.5299 35.3242 59.4461 35.8067 59.35C36.2891 59.2543 36.7688 59.1469 37.2459 59.0271C37.723 58.9078 38.1968 58.7768 38.6674 58.6344C39.138 58.4915 39.6049 58.3378 40.0679 58.1724C40.531 58.0069 40.9898 57.8302 41.4442 57.6421C41.8987 57.4541 42.3478 57.2548 42.7926 57.0448C43.2374 56.8347 43.6763 56.6139 44.1103 56.3824C44.5438 56.1508 44.9719 55.9085 45.3936 55.656C45.8152 55.4035 46.231 55.1408 46.6397 54.8679C47.0485 54.595 47.4508 54.3125 47.8456 54.0197C48.2409 53.7269 48.6281 53.425 49.0084 53.1134C49.3886 52.8013 49.7608 52.4805 50.1255 52.1507C50.4901 51.8208 50.8462 51.4824 51.1936 51.1348C51.5416 50.7872 51.8804 50.4316 52.2106 50.0679C52.5414 49.7036 52.8625 49.3319 53.1744 48.9521C53.4864 48.5723 53.7887 48.1855 54.0818 47.7906C54.3749 47.3963 54.6578 46.9944 54.931 46.5861C55.2042 46.1773 55.4672 45.7626 55.7206 45.3414C55.9733 44.9197 56.2154 44.4926 56.4472 44.0591C56.679 43.6261 56.9 43.1872 57.1103 42.7434C57.3206 42.2991 57.5202 41.85 57.7084 41.3961C57.8966 40.9426 58.0736 40.4844 58.2392 40.0219C58.4049 39.5593 58.5593 39.093 58.7018 38.6229C58.8448 38.1523 58.9755 37.679 59.0955 37.2025C59.2149 36.726 59.3224 36.2468 59.4187 35.7649C59.5145 35.2836 59.5984 34.7995 59.6704 34.3133C59.743 33.8277 59.8027 33.3399 59.8511 32.851C59.8995 32.3622 59.9356 31.8728 59.9598 31.3817C59.984 30.8913 59.9958 30.4002 59.9958 29.9087C59.9958 29.4177 59.984 28.9266 59.9598 28.4362C59.9356 27.9451 59.8995 27.4557 59.8511 26.9669C59.8027 26.478 59.743 25.9902 59.6704 25.5045C59.5984 25.0184 59.5145 24.5343 59.4187 24.053C59.3224 23.5711 59.2149 23.0919 59.0955 22.6154C58.9755 22.1389 58.8448 21.665 58.7018 21.195C58.5593 20.7249 58.4049 20.2586 58.2392 19.796C58.0736 19.3335 57.8966 18.8752 57.7084 18.4213C57.5202 17.9679 57.3206 17.5188 57.1103 17.0745C56.9 16.6307 56.679 16.1918 56.4472 15.7583C56.2154 15.3253 55.9733 14.8982 55.7206 14.4765C55.4672 14.0553 55.2042 13.64 54.931 13.2317C54.6578 12.8235 54.3749 12.4216 54.0818 12.0273C53.7887 11.6324 53.4864 11.2456 53.1744 10.8658C52.8625 10.486 52.5414 10.1143 52.2106 9.75002C51.8804 9.38632 51.5416 9.03014 51.1936 8.68309C50.8462 8.33551 50.4901 7.99706 50.1255 7.66721C49.7608 7.33736 49.3886 7.0161 49.0084 6.70451C48.6281 6.39292 48.2409 6.09101 47.8456 5.79822C47.4508 5.50544 47.0485 5.22286 46.6397 4.94995C46.231 4.67704 45.8152 4.41434 45.3936 4.16185C44.9719 3.90882 44.5438 3.66707 44.1103 3.43553C43.6763 3.20398 43.2374 2.98319 42.7926 2.77313C42.3478 2.56308 41.8987 2.36377 41.4442 2.17574C40.9898 1.98772 40.531 1.81097 40.0679 1.64551C39.6049 1.48004 39.138 1.32586 38.6674 1.1835C38.1968 1.04113 37.723 0.910053 37.2459 0.79079C36.7688 0.67099 36.2891 0.563546 35.8067 0.46792C35.3242 0.371758 34.8396 0.287951 34.3529 0.215964C33.8667 0.143976 33.3789 0.0838076 32.8894 0.0354577C32.4 -0.0128922 31.9095 -0.0488858 31.4179 -0.0730608C30.9269 -0.0972357 30.4353 -0.109055 29.9437 -0.109055C29.4516 -0.109055 28.96 -0.0972357 28.469 -0.0730608C27.9779 -0.0488858 27.4874 -0.0128922 26.998 0.0354577C26.5085 0.0838076 26.0202 0.143976 25.534 0.215964C25.0472 0.287951 24.5632 0.371758 24.0808 0.46792C23.5983 0.563546 23.1186 0.67099 22.6415 0.79079C22.1644 0.910053 21.6906 1.04113 21.22 1.1835C20.7494 1.32586 20.282 1.48004 19.8189 1.64551C19.3559 1.81097 18.8976 1.98772 18.4432 2.17574C17.9887 2.36377 17.5391 2.56308 17.0943 2.77313C16.65 2.98319 16.2106 3.20398 15.7771 3.43553C15.3431 3.66707 14.9155 3.90882 14.4933 4.16185C14.0716 4.41434 13.6564 4.67704 13.2471 4.94995C12.8384 5.22286 12.4366 5.50544 12.0413 5.79822C11.6465 6.09101 11.2587 6.39292 10.8785 6.70451C10.4983 7.0161 10.1261 7.33736 9.76142 7.66721C9.3973 7.99706 9.04125 8.33551 8.69327 8.68309C8.34529 9.03014 8.00646 9.38632 7.67623 9.75002C7.34599 10.1143 7.02491 10.486 6.71296 10.8658C6.40048 11.2456 6.09822 11.6324 5.80509 12.0273C5.51251 12.4216 5.22907 12.8235 4.95585 13.2317C4.68263 13.64 4.41963 14.0553 4.16685 14.4765C3.91406 14.8982 3.6715 15.3253 3.43969 15.7583C3.20789 16.1918 2.98684 16.6307 2.77654 17.0745C2.56625 17.5188 2.36725 17.9679 2.17901 18.4213C1.99076 18.8752 1.81382 19.3335 1.64816 19.796C1.48197 20.2586 1.32815 20.7249 1.18509 21.195C1.04256 21.665 0.911327 22.1389 0.791927 22.6154C0.672528 23.0919 0.564423 23.5711 0.468688 24.053C0.372415 24.5343 0.288513 25.0184 0.216443 25.5045C0.144373 25.9902 0.0841352 26.478 0.0357301 26.9669C-0.0121373 27.4557 -0.0487103 27.9451 -0.0723749 28.4362C-0.0965776 28.9266 -0.108948 29.4177 -0.108948 29.9087C-0.10841 30.4002 -0.0955018 30.8907 -0.0707614 31.3812C-0.0465587 31.8717 -0.00944806 32.3616 0.0389571 32.85C0.0879002 33.3388 0.148138 33.8261 0.220746 34.3117C0.293353 34.7974 0.377794 35.2814 0.474604 35.7628C0.570877 36.2441 0.678982 36.7233 0.798381 37.1998C0.918319 37.6758 1.05009 38.1491 1.19315 38.6186C1.33622 39.0887 1.49058 39.555 1.65677 40.017C1.82242 40.4796 1.99937 40.9373 2.18815 41.3907C2.37639 41.8446 2.57593 42.2932 2.78622 42.737C2.99652 43.1812 3.2181 43.6196 3.44991 44.0526C3.68172 44.4856 3.92428 44.9127 4.17707 45.3339C4.43039 45.7551 4.69339 46.1698 4.96661 46.5781C5.23983 46.9864 5.52273 47.3877 5.81585 47.782C6.10897 48.1763 6.41124 48.5631 6.72318 48.9429C7.03513 49.3222 7.35621 49.694 7.68644 50.0582C8.01668 50.4219 8.35605 50.7775 8.70349 51.1246C9.05093 51.4722 9.40698 51.8106 9.77163 52.1405C10.1357 52.4703 10.5079 52.791 10.8876 53.1026C11.2679 53.4142 11.6551 53.7161 12.0499 54.0089C12.4452 54.3017 12.847 54.5843 13.2557 54.8572C13.6645 55.1301 14.0797 55.3933 14.5014 55.6458C14.9225 55.8983 15.3501 56.1406 15.7836 56.3722C16.2176 56.6037 16.6565 56.825 17.1007 57.0351C17.545 57.2451 17.9941 57.4444 18.4485 57.6325C18.9025 57.821 19.3612 57.9978 19.8238 58.1638C20.2869 58.3292 20.7532 58.4834 21.2238 58.6263C21.6938 58.7692 22.1677 58.9009 22.6447 59.0207C23.1213 59.1404 23.601 59.2484 24.0829 59.3446C24.5653 59.4408 25.0494 59.5251 25.5356 59.5976C26.0218 59.6702 26.5096 59.7309 26.9991 59.7792C27.4885 59.8281 27.9785 59.8646 28.4695 59.8893C28.9605 59.9135 29.4521 59.9264 29.9437 59.9269ZM29.9437 3.16584C30.3815 3.16584 30.8198 3.17659 31.2571 3.19807C31.6949 3.21956 32.1316 3.25126 32.5678 3.29424C33.004 3.33721 33.4386 3.39094 33.8721 3.45487C34.3056 3.51933 34.7369 3.59401 35.1666 3.67942C35.5969 3.76484 36.0239 3.861 36.4488 3.96684C36.8743 4.07321 37.2965 4.19032 37.7154 4.3171C38.1349 4.44443 38.5507 4.58142 38.9632 4.72915C39.3757 4.87635 39.7845 5.03376 40.1895 5.20137C40.5945 5.36898 40.9946 5.54627 41.391 5.73322C41.7868 5.92017 42.1784 6.11733 42.5646 6.32362C42.9513 6.52992 43.3321 6.74534 43.708 6.97044C44.0839 7.19553 44.454 7.42976 44.8181 7.67258C45.1827 7.91594 45.5409 8.1679 45.8927 8.42845C46.245 8.689 46.5903 8.95815 46.9286 9.2359C47.2674 9.51364 47.5992 9.79944 47.9236 10.0933C48.2484 10.3872 48.5657 10.6891 48.8755 10.9985C49.1853 11.308 49.4876 11.6249 49.7818 11.9494C50.076 12.2733 50.3621 12.6048 50.6402 12.9433C50.9182 13.2817 51.1877 13.6266 51.4485 13.9779C51.7094 14.3293 51.9616 14.6871 52.2053 15.0513C52.4489 15.415 52.6829 15.7846 52.9082 16.1601C53.1336 16.5356 53.3492 16.916 53.5563 17.3023C53.7628 17.688 53.9597 18.0791 54.1469 18.4745C54.334 18.8704 54.5115 19.2701 54.6793 19.6746C54.8471 20.0792 55.0047 20.4874 55.1526 20.8995C55.3 21.3115 55.4377 21.7268 55.5646 22.1458C55.6921 22.5643 55.8088 22.9861 55.9153 23.411C56.0218 23.8354 56.1175 24.2625 56.203 24.6917C56.2885 25.121 56.3633 25.5518 56.4278 25.9848C56.4918 26.4178 56.5456 26.8519 56.5886 27.2876C56.6317 27.7233 56.6639 28.1595 56.6854 28.5968C56.707 29.0341 56.7177 29.4714 56.7177 29.9087C56.7177 30.3465 56.707 30.7838 56.6854 31.2211C56.6639 31.6584 56.6317 32.0946 56.5886 32.5303C56.5456 32.966 56.4918 33.4001 56.4278 33.8331C56.3633 34.2661 56.2885 34.6969 56.203 35.1262C56.1175 35.5554 56.0218 35.9825 55.9153 36.4069C55.8088 36.8318 55.6921 37.253 55.5646 37.672C55.4377 38.0911 55.3 38.5064 55.1526 38.9184C55.0047 39.3304 54.8471 39.7387 54.6793 40.1433C54.5115 40.5473 54.334 40.9475 54.1469 41.3434C53.9597 41.7388 53.7628 42.1299 53.5563 42.5156C53.3492 42.9019 53.1336 43.2822 52.9082 43.6578C52.6829 44.0333 52.4489 44.4029 52.2053 44.7666C51.9616 45.1308 51.7094 45.4886 51.4485 45.8399C51.1877 46.1913 50.9182 46.5362 50.6402 46.8746C50.3621 47.2131 50.076 47.5445 49.7818 47.8685C49.4876 48.193 49.1853 48.5099 48.8755 48.8194C48.5657 49.1288 48.2484 49.4307 47.9236 49.7246C47.5992 50.0184 47.2674 50.3042 46.9286 50.582C46.5903 50.8592 46.245 51.1289 45.8927 51.3894C45.5409 51.65 45.1827 51.9019 44.8181 52.1453C44.454 52.3881 44.0839 52.6224 43.708 52.8475C43.3321 53.0725 42.9513 53.288 42.5646 53.4943C42.1784 53.7006 41.7868 53.8977 41.391 54.0847C40.9946 54.2716 40.5945 54.4489 40.1895 54.6165C39.7845 54.7841 39.3757 54.9415 38.9632 55.0887C38.5507 55.2365 38.1349 55.3735 37.7154 55.5008C37.2965 55.6276 36.8743 55.7447 36.4488 55.8505C36.0239 55.9569 35.5969 56.053 35.1666 56.1385C34.7369 56.2239 34.3056 56.2986 33.8721 56.363C33.4386 56.427 33.004 56.4807 32.5678 56.5237C32.1316 56.5661 31.6949 56.5983 31.2571 56.6198C30.8198 56.6413 30.3815 56.652 29.9437 56.652C29.5054 56.652 29.0676 56.6413 28.6298 56.6198C28.192 56.5983 27.7553 56.5661 27.3191 56.5237C26.8834 56.4807 26.4483 56.427 26.0148 56.363C25.5813 56.2986 25.15 56.2239 24.7202 56.1385C24.2905 56.053 23.8629 55.9569 23.438 55.8505C23.0132 55.7447 22.591 55.6276 22.1714 55.5008C21.7519 55.3735 21.3362 55.2365 20.9237 55.0887C20.5111 54.9415 20.1024 54.7841 19.6974 54.6165C19.2929 54.4489 18.8923 54.2716 18.4964 54.0847C18.1 53.8977 17.709 53.7006 17.3223 53.4943C16.9361 53.288 16.5548 53.0725 16.1789 52.8475C15.8029 52.6224 15.4329 52.3881 15.0688 52.1453C14.7047 51.9019 14.3465 51.65 13.9942 51.3894C13.6424 51.1289 13.2971 50.8592 12.9583 50.582C12.6195 50.3042 12.2882 50.0184 11.9633 49.7246C11.6385 49.4307 11.3211 49.1288 11.0113 48.8194C10.7016 48.5099 10.3998 48.193 10.1056 47.8685C9.8109 47.5445 9.52477 47.2131 9.24724 46.8746C8.96918 46.5362 8.69973 46.1913 8.43834 45.8399C8.17749 45.4886 7.92524 45.1308 7.6816 44.7666C7.4385 44.4029 7.20401 44.0333 6.97865 43.6578C6.7533 43.2822 6.53763 42.9019 6.3311 42.5156C6.12457 42.1299 5.92772 41.7388 5.74002 41.3434C5.55285 40.9475 5.37536 40.5473 5.20756 40.1433C5.03975 39.7387 4.88217 39.3304 4.7348 38.9184C4.5869 38.5064 4.44975 38.0911 4.32228 37.672C4.19535 37.253 4.07864 36.8318 3.97215 36.4069C3.86566 35.9825 3.76939 35.5554 3.68387 35.1262C3.59835 34.6969 3.5236 34.2661 3.45959 33.8331C3.39505 33.4001 3.34127 32.966 3.29878 32.5303C3.25575 32.0946 3.22348 31.6584 3.20197 31.2211C3.18046 30.7838 3.1697 30.3465 3.1697 29.9087C3.17024 29.4714 3.18153 29.0341 3.20305 28.5973C3.2251 28.16 3.2579 27.7238 3.30147 27.2887C3.3445 26.853 3.39882 26.4189 3.46336 25.9864C3.5279 25.5534 3.60319 25.1226 3.68871 24.6939C3.77476 24.2646 3.87104 23.8381 3.97807 23.4137C4.08456 22.9893 4.20181 22.5676 4.32927 22.1491C4.45674 21.7306 4.59443 21.3153 4.74179 20.9032C4.8897 20.4912 5.04782 20.0835 5.21563 19.6795C5.38343 19.2749 5.56092 18.8752 5.74862 18.4798C5.93633 18.0845 6.13317 17.6939 6.3397 17.3082C6.54623 16.9224 6.76244 16.5416 6.9878 16.1666C7.21315 15.7916 7.44765 15.422 7.69075 15.0583C7.93439 14.6946 8.18663 14.3368 8.44748 13.9855C8.70887 13.6341 8.97833 13.2892 9.25585 12.9513C9.53391 12.6129 9.82004 12.2819 10.1142 11.9575C10.4084 11.6335 10.7107 11.3166 11.02 11.0071C11.3297 10.6977 11.6471 10.3963 11.9714 10.1024C12.2962 9.80857 12.6275 9.52277 12.9664 9.24503C13.3047 8.96729 13.65 8.69814 14.0017 8.43759C14.3535 8.17703 14.7117 7.92508 15.0758 7.68172C15.4399 7.43836 15.8099 7.20466 16.1853 6.97957C16.5613 6.75447 16.9421 6.53851 17.3282 6.33222C17.7144 6.12593 18.1054 5.92877 18.5012 5.74181C18.8971 5.55432 19.2978 5.37704 19.7022 5.20943C20.1067 5.04182 20.5154 4.88387 20.9274 4.73614C21.3399 4.5884 21.7557 4.45087 22.1747 4.32409C22.5936 4.19677 23.0158 4.07965 23.4407 3.97275C23.8656 3.86638 24.2927 3.77021 24.7224 3.68426C25.1516 3.59884 25.5835 3.52363 26.0164 3.45916C26.4499 3.39416 26.8845 3.34044 27.3201 3.29692C27.7563 3.25395 28.1925 3.22118 28.6303 3.19915C29.0676 3.17712 29.5054 3.16638 29.9437 3.16584Z" fill="currentColor"/><path d="M30.819 40.5129H21.9086C21.7833 40.5129 21.6593 40.5254 21.5365 40.5499C21.4137 40.5743 21.2941 40.6105 21.1782 40.6581C21.0623 40.7063 20.9527 40.7651 20.8481 40.8346C20.7441 40.904 20.6476 40.9835 20.5587 41.0717C20.4703 41.1605 20.3908 41.2569 20.3212 41.3608C20.2517 41.4646 20.1928 41.5748 20.1452 41.6905C20.097 41.8063 20.0606 41.9252 20.0362 42.0484C20.0118 42.1711 19.9999 42.295 19.9999 42.4201C19.9999 42.5453 20.0118 42.6698 20.0362 42.7924C20.0606 42.9151 20.097 43.0346 20.1452 43.1503C20.1928 43.2655 20.2517 43.3756 20.3212 43.4795C20.3908 43.5839 20.4703 43.6803 20.5587 43.7685C20.6476 43.8574 20.7441 43.9362 20.8481 44.0057C20.9527 44.0758 21.0623 44.1339 21.1782 44.1821C21.2941 44.2303 21.4137 44.266 21.5365 44.2904C21.6593 44.3148 21.7833 44.3273 21.9086 44.3273H27.6367V47.5059C27.6367 47.6311 27.6486 47.755 27.673 47.8776C27.6975 48.0009 27.7338 48.1198 27.782 48.2355C27.8296 48.3513 27.8885 48.4614 27.9587 48.5653C28.0282 48.6691 28.1072 48.7655 28.1961 48.8543C28.2844 48.9426 28.3809 49.022 28.4849 49.0915C28.5895 49.1609 28.6991 49.2198 28.815 49.2673C28.9309 49.3155 29.0506 49.3518 29.1733 49.3762C29.2961 49.4006 29.4208 49.4131 29.5461 49.4131C29.6714 49.4131 29.7954 49.4006 29.9182 49.3762C30.0416 49.3518 30.1606 49.3155 30.2765 49.2673C30.3924 49.2198 30.5026 49.1609 30.6066 49.0915C30.7106 49.022 30.8071 48.9426 30.896 48.8543C30.9844 48.7655 31.0639 48.6691 31.1334 48.5653C31.203 48.4614 31.2619 48.3513 31.3101 48.2355C31.3577 48.1198 31.394 48.0009 31.4185 47.8776C31.4429 47.755 31.4554 47.6311 31.4554 47.5059V44.2628C31.7116 44.2434 31.966 44.2128 32.2197 44.1696C32.4728 44.1264 32.7233 44.072 32.9714 44.0051C33.2201 43.9387 33.4644 43.8611 33.7056 43.7717C33.9461 43.6828 34.1823 43.5821 34.4141 43.4713C34.6459 43.3599 34.8714 43.2379 35.0919 43.1059C35.3117 42.9732 35.5254 42.8312 35.7321 42.6792C35.9388 42.5265 36.1386 42.365 36.3303 42.1942C36.522 42.0234 36.7056 41.8445 36.8803 41.6561C37.0551 41.4684 37.2211 41.2726 37.3777 41.0692C37.535 40.8658 37.6815 40.6556 37.8187 40.4385C37.9559 40.2214 38.0825 39.9986 38.199 39.7696C38.3149 39.5406 38.4201 39.3072 38.5147 39.0682C38.6093 38.8298 38.692 38.587 38.764 38.3405C38.8354 38.0939 38.8956 37.8449 38.9444 37.5927C38.9927 37.3406 39.029 37.0871 39.0541 36.8319C39.0785 36.5759 39.091 36.32 39.0923 36.0635C39.0898 35.7932 39.0747 35.5241 39.0459 35.2557C39.0177 34.9872 38.9764 34.7207 38.9219 34.456C38.8674 34.1913 38.8003 33.9298 38.7208 33.672C38.6406 33.4142 38.5485 33.1608 38.4445 32.9111C38.3399 32.6621 38.2234 32.4187 38.0956 32.1809C37.9672 31.9431 37.8275 31.7123 37.6772 31.4882C37.5262 31.2636 37.3652 31.0477 37.1936 30.8388C37.0219 30.6304 36.8402 30.4308 36.6492 30.2399C36.4581 30.0485 36.2577 29.8676 36.0491 29.6962C35.8405 29.5241 35.6237 29.3633 35.3995 29.2131C35.1746 29.0623 34.9434 28.9234 34.7054 28.7952C34.4673 28.6669 34.2236 28.5511 33.9743 28.4466C33.725 28.3422 33.4713 28.2502 33.2126 28.1707C32.9545 28.0906 32.6926 28.0237 32.4283 27.9692C32.1633 27.9148 31.8964 27.8735 31.6277 27.8453C31.359 27.8172 31.089 27.8015 30.819 27.7997H28.2732C28.1272 27.7997 27.9819 27.7921 27.8365 27.7778C27.6912 27.764 27.5471 27.7421 27.4037 27.7139C27.2608 27.6858 27.1193 27.6501 26.9796 27.6076C26.8405 27.5656 26.7033 27.5162 26.568 27.4605C26.4333 27.4048 26.3018 27.3429 26.1727 27.2741C26.0443 27.2052 25.9197 27.1308 25.7981 27.0494C25.6766 26.9687 25.5595 26.8817 25.4467 26.7891C25.3339 26.6971 25.2262 26.5989 25.1228 26.4963C25.0201 26.393 24.9218 26.2854 24.8297 26.1728C24.737 26.0602 24.6499 25.9432 24.5691 25.8218C24.4876 25.7004 24.4131 25.5759 24.3442 25.447C24.2753 25.3187 24.2133 25.1873 24.1575 25.0528C24.1011 24.9176 24.0523 24.7806 24.0097 24.641C23.9677 24.5021 23.932 24.3607 23.9038 24.2181C23.875 24.0748 23.8537 23.9309 23.8399 23.7857C23.8255 23.6405 23.818 23.4954 23.818 23.3496C23.818 23.2038 23.8255 23.0586 23.8399 22.9134C23.8537 22.7683 23.875 22.6244 23.9038 22.4817C23.932 22.3384 23.9677 22.1976 24.0097 22.0581C24.0523 21.9186 24.1011 21.7815 24.1575 21.647C24.2133 21.5118 24.2753 21.3804 24.3442 21.2522C24.4131 21.1233 24.4876 20.9988 24.5691 20.8774C24.6499 20.7566 24.737 20.6396 24.8297 20.527C24.9218 20.4143 25.0201 20.3061 25.1228 20.2028C25.2262 20.1002 25.3339 20.0026 25.4467 19.91C25.5595 19.8174 25.6766 19.7304 25.7981 19.6497C25.9197 19.569 26.0443 19.4939 26.1727 19.4251C26.3018 19.3563 26.4333 19.2943 26.568 19.2386C26.7033 19.1829 26.8405 19.1335 26.9796 19.0916C27.1193 19.049 27.2608 19.014 27.4037 18.9852C27.5471 18.9571 27.6912 18.9358 27.8365 18.9214C27.9819 18.907 28.1272 18.9001 28.2732 18.9001H37.1829C37.3082 18.9001 37.4322 18.8876 37.5556 18.8632C37.6784 18.8388 37.7974 18.8025 37.9133 18.7549C38.0292 18.7068 38.1395 18.6479 38.2435 18.5785C38.3481 18.509 38.4445 18.4296 38.5329 18.3413C38.6218 18.2525 38.7007 18.1561 38.7703 18.0523C38.8398 17.9484 38.8987 17.8383 38.9469 17.7225C38.9945 17.6068 39.0309 17.4879 39.0553 17.3646C39.0797 17.242 39.0923 17.1181 39.0923 16.9929C39.0923 16.8678 39.0797 16.7433 39.0553 16.6206C39.0309 16.498 38.9945 16.3785 38.9469 16.2627C38.8987 16.1476 38.8398 16.0375 38.7703 15.933C38.7007 15.8291 38.6218 15.7327 38.5329 15.6445C38.4445 15.5557 38.3481 15.4768 38.2435 15.4074C38.1395 15.3373 38.0292 15.2791 37.9133 15.2309C37.7974 15.1827 37.6784 15.1471 37.5556 15.122C37.4322 15.0976 37.3082 15.0858 37.1829 15.0858H31.4554V11.9071C31.4554 11.782 31.4429 11.6581 31.4185 11.5354C31.394 11.4122 31.3577 11.2933 31.3101 11.1775C31.2619 11.0618 31.203 10.9517 31.1334 10.8478C31.0639 10.7439 30.9844 10.6476 30.896 10.5587C30.8071 10.4705 30.7106 10.391 30.6066 10.3216C30.5026 10.2521 30.3924 10.1933 30.2765 10.1451C30.1606 10.0976 30.0416 10.0613 29.9182 10.0369C29.7954 10.0125 29.6714 9.99994 29.5461 9.99994C29.4208 9.99994 29.2961 10.0125 29.1733 10.0369C29.0506 10.0613 28.9309 10.0976 28.815 10.1451C28.6991 10.1933 28.5895 10.2521 28.4849 10.3216C28.3809 10.391 28.2844 10.4705 28.1961 10.5587C28.1072 10.6476 28.0282 10.7439 27.9587 10.8478C27.8885 10.9517 27.8296 11.0618 27.782 11.1775C27.7338 11.2933 27.6975 11.4122 27.673 11.5354C27.6486 11.6581 27.6367 11.782 27.6367 11.9071V15.1502C27.3736 15.1696 27.1118 15.2021 26.8512 15.2472C26.5912 15.2916 26.3337 15.3492 26.0794 15.4186C25.8244 15.4881 25.5739 15.5694 25.3271 15.6633C25.0796 15.7565 24.8378 15.8616 24.6016 15.9786C24.3649 16.095 24.1337 16.2227 23.9094 16.3616C23.6852 16.5005 23.4678 16.65 23.2573 16.8096C23.0475 16.9692 22.8451 17.1387 22.6516 17.3177C22.458 17.4966 22.2726 17.6843 22.0972 17.8814C21.9211 18.0779 21.7551 18.2825 21.5992 18.4953C21.4432 18.708 21.2972 18.9276 21.1625 19.1542C21.0272 19.3813 20.9032 19.6134 20.7911 19.8518C20.6783 20.0908 20.5774 20.3342 20.4879 20.582C20.3983 20.8304 20.3212 21.082 20.2561 21.3379C20.1909 21.5932 20.1383 21.8516 20.0982 22.1119C20.0581 22.3728 20.0299 22.635 20.0149 22.8978C19.9999 23.1612 19.9974 23.4247 20.0074 23.6881C20.018 23.9521 20.0406 24.2143 20.0763 24.4759C20.1114 24.7368 20.159 24.9958 20.2198 25.253C20.2799 25.5095 20.3526 25.763 20.4371 26.0126C20.5217 26.2623 20.6182 26.5076 20.7259 26.7485C20.8343 26.9887 20.9539 27.2234 21.0849 27.453C21.2152 27.682 21.3567 27.9042 21.509 28.12C21.6612 28.3353 21.8234 28.543 21.9951 28.7432C22.1673 28.9428 22.3484 29.1343 22.5394 29.317C22.7299 29.4997 22.9284 29.673 23.1358 29.8364C23.3425 29.9997 23.5574 30.153 23.7791 30.2963C24.0009 30.4395 24.2289 30.5716 24.4632 30.6923C24.6981 30.8137 24.938 30.9232 25.183 31.0215C25.4279 31.1197 25.6772 31.206 25.9303 31.2799C26.184 31.3543 26.4402 31.4163 26.6996 31.4657C26.9589 31.5158 27.2201 31.5527 27.4826 31.5777C27.7457 31.6021 28.0088 31.614 28.2732 31.6134H30.819C30.9643 31.6134 31.1103 31.6209 31.2556 31.6353C31.4003 31.6491 31.545 31.6703 31.6878 31.6991C31.8307 31.7273 31.9722 31.7629 32.1119 31.8055C32.2516 31.8474 32.3888 31.8962 32.5235 31.9525C32.6582 32.0082 32.7904 32.0702 32.9188 32.139C33.0472 32.2078 33.1725 32.2823 33.294 32.3636C33.4149 32.4443 33.5321 32.5313 33.6448 32.6239C33.7576 32.7159 33.8659 32.8141 33.9687 32.9168C34.072 33.02 34.1698 33.1276 34.2625 33.2402C34.3552 33.3529 34.4416 33.4699 34.5231 33.5913C34.6039 33.7127 34.6791 33.8372 34.7473 33.9655C34.8162 34.0943 34.8789 34.2257 34.9346 34.3603C34.9904 34.4954 35.0393 34.6325 35.0818 34.7714C35.1244 34.9109 35.1595 35.0523 35.1877 35.195C35.2165 35.3383 35.2378 35.4822 35.2522 35.6274C35.2666 35.7725 35.2735 35.9177 35.2735 36.0635C35.2735 36.2093 35.2666 36.3544 35.2522 36.4996C35.2378 36.6448 35.2165 36.7887 35.1877 36.9313C35.1595 37.0746 35.1244 37.2154 35.0818 37.3549C35.0393 37.4945 34.9904 37.6315 34.9346 37.766C34.8789 37.9006 34.8162 38.0326 34.7473 38.1609C34.6791 38.2898 34.6039 38.4143 34.5231 38.5357C34.4416 38.6564 34.3552 38.7734 34.2625 38.8861C34.1698 38.9987 34.072 39.107 33.9687 39.2096C33.8659 39.3128 33.7576 39.4104 33.6448 39.503C33.5321 39.5956 33.4149 39.682 33.294 39.7633C33.1725 39.844 33.0472 39.9191 32.9188 39.988C32.7904 40.0562 32.6582 40.1187 32.5235 40.1744C32.3888 40.2301 32.2516 40.2795 32.1119 40.3215C31.9722 40.364 31.8307 40.3991 31.6878 40.4278C31.545 40.456 31.4003 40.4773 31.2556 40.4917C31.1103 40.5061 30.9643 40.5129 30.819 40.5129Z" fill="currentColor"/></g></svg>