<svg width="54" height="54" viewBox="0 0 54 54" fill="none" xmlns="http://www.w3.org/2000/svg"><path d="M2 24.2227V47.5565C2 49.1123 2 49.8888 2.30277 50.483C2.56909 51.0057 2.99373 51.4323 3.51642 51.6986C4.11005 52.0011 4.8862 52.0011 6.43889 52.0011L36.449 52.0011C38.0017 52.0011 38.7808 52.0011 39.3745 51.6986C39.8972 51.4323 40.3196 51.0067 40.5859 50.4841C40.8887 49.8899 40.8887 49.112 40.8887 47.5562L40.8929 35.3358M2 24.2227H21.4449M2 24.2227L2.00001 23.1118C2.00001 21.5564 2.00001 20.7776 2.30274 20.1834C2.56906 19.6608 2.99373 19.2361 3.51642 18.9698C4.11052 18.667 4.88826 18.667 6.44345 18.667L13.1113 18.667M21.4449 24.2227H36.4452C38.0009 24.2227 38.7842 24.2227 39.3785 24.5255C39.9011 24.7918 40.3196 25.2164 40.5859 25.7391C40.8887 26.3333 40.8887 27.1112 40.8887 28.6669L40.8929 35.3358M21.4449 24.2227L18.4581 20.3828C17.9687 19.7536 17.723 19.4377 17.4165 19.2109C17.1448 19.01 16.8421 18.8609 16.5167 18.7698C16.1496 18.667 15.7469 18.667 14.95 18.667L13.1113 18.667M13.1113 7.55567H47.5565C49.1123 7.55567 49.8955 7.55567 50.4897 7.85844C51.0124 8.12476 51.4309 8.54941 51.6972 9.07209C52 9.6663 52 10.4442 52 11.9999V30.8892C52 32.445 52 33.2228 51.6972 33.817C51.4309 34.3397 51.01 34.7652 50.4874 35.0316C49.8937 35.334 49.1157 35.334 47.563 35.334L40.8929 35.3358M13.1113 7.55567V18.667M13.1113 7.55567L13.1114 6.44481C13.1114 4.88935 13.1114 4.11058 13.4141 3.51642C13.6804 2.99373 14.1051 2.56909 14.6278 2.30277C15.222 2 15.9991 2 17.5548 2H26.0603C26.858 2 27.2542 2 27.6215 2.10282C27.9469 2.1939 28.2561 2.34298 28.5278 2.5439C28.8344 2.77065 29.0801 3.08654 29.5695 3.7158L32.556 7.55562" stroke="currentColor" stroke-width="4" stroke-linecap="round" stroke-linejoin="round"/></svg>