<svg width="43" height="54" viewBox="0 0 43 54" fill="none" xmlns="http://www.w3.org/2000/svg"><path d="M22.8433 49L0 26.1567V30.8233C0 32.06 0.49 33.25 1.37667 34.1133L19.5533 52.29C21.3733 54.11 24.3367 54.11 26.1567 52.29L40.6467 37.8C42.4667 35.98 42.4667 33.0167 40.6467 31.1967L22.8433 49Z" fill="currentColor"/><path d="M19.5533 40.6233C21.3733 42.4433 24.3367 42.4433 26.1567 40.6233L40.6467 26.1333C42.4667 24.3133 42.4667 21.35 40.6467 19.53L22.47 1.35333C21.5837 0.488371 20.3951 0.00290576 19.1567 0L4.66667 0C2.1 0 0 2.1 0 4.66667V19.1567C0 20.3933 0.49 21.5833 1.37667 22.4467L19.5533 40.6233ZM9.91667 7C10.6902 7 11.4321 7.30729 11.9791 7.85427C12.526 8.40125 12.8333 9.14312 12.8333 9.91667C12.8333 10.6902 12.526 11.4321 11.9791 11.9791C11.4321 12.526 10.6902 12.8333 9.91667 12.8333C9.14312 12.8333 8.40125 12.526 7.85427 11.9791C7.30729 11.4321 7 10.6902 7 9.91667C7 9.14312 7.30729 8.40125 7.85427 7.85427C8.40125 7.30729 9.14312 7 9.91667 7Z" fill="currentColor"/></svg>