<svg width="43" height="46" viewBox="0 0 43 46" fill="none" xmlns="http://www.w3.org/2000/svg"><path d="M26.25 0.25V11.625C26.25 12.9179 26.7636 14.1579 27.6779 15.0721C28.5921 15.9864 29.8321 16.5 31.125 16.5H42.5V40.875C42.5 42.1679 41.9864 43.4079 41.0721 44.3221C40.1579 45.2364 38.9179 45.75 37.625 45.75H25.1548C28.6136 43.324 31.1014 39.7514 32.1768 35.6657C33.2522 31.5801 32.8457 27.2456 31.0294 23.4311C29.2131 19.6166 26.1045 16.5688 22.2549 14.8282C18.4053 13.0876 14.0636 12.7668 10 13.9227V5.125C10 3.83207 10.5136 2.59209 11.4279 1.67785C12.3421 0.763615 13.5821 0.25 14.875 0.25H26.25ZM29.5 1.0625V11.625C29.5 12.056 29.6712 12.4693 29.976 12.774C30.2807 13.0788 30.694 13.25 31.125 13.25H41.6875L29.5 1.0625ZM29.5 31.125C29.5 35.0038 27.9592 38.7237 25.2164 41.4664C22.4737 44.2092 18.7538 45.75 14.875 45.75C10.9962 45.75 7.27628 44.2092 4.53356 41.4664C1.79084 38.7237 0.25 35.0038 0.25 31.125C0.25 27.2462 1.79084 23.5263 4.53356 20.7836C7.27628 18.0408 10.9962 16.5 14.875 16.5C18.7538 16.5 22.4737 18.0408 25.2164 20.7836C27.9592 23.5263 29.5 27.2462 29.5 31.125ZM16.5 24.625C16.5 24.194 16.3288 23.7807 16.024 23.476C15.7193 23.1712 15.306 23 14.875 23C14.444 23 14.0307 23.1712 13.726 23.476C13.4212 23.7807 13.25 24.194 13.25 24.625V29.5H8.375C7.94402 29.5 7.5307 29.6712 7.22595 29.976C6.92121 30.2807 6.75 30.694 6.75 31.125C6.75 31.556 6.92121 31.9693 7.22595 32.274C7.5307 32.5788 7.94402 32.75 8.375 32.75H13.25V37.625C13.25 38.056 13.4212 38.4693 13.726 38.774C14.0307 39.0788 14.444 39.25 14.875 39.25C15.306 39.25 15.7193 39.0788 16.024 38.774C16.3288 38.4693 16.5 38.056 16.5 37.625V32.75H21.375C21.806 32.75 22.2193 32.5788 22.524 32.274C22.8288 31.9693 23 31.556 23 31.125C23 30.694 22.8288 30.2807 22.524 29.976C22.2193 29.6712 21.806 29.5 21.375 29.5H16.5V24.625Z" fill="currentColor"/></svg>