<svg width="238" height="233" viewBox="0 0 238 233" fill="none" xmlns="http://www.w3.org/2000/svg">
<mask id="mask0_1_1096" style="mask-type:alpha" maskUnits="userSpaceOnUse" x="0" y="0" width="238" height="233">
<rect x="0.5" y="1" width="237" height="231" fill="white" stroke="#ABABAB"/>
</mask>
<g mask="url(#mask0_1_1096)">
<path d="M69.2 273.2C56.8 273.2 45.8 270.333 36.2 264.6C26.7333 258.867 19.2667 250.533 13.8 239.6C8.46667 228.667 5.8 215.467 5.8 200C5.8 184.533 8.46667 171.333 13.8 160.4C19.2667 149.467 26.7333 141.133 36.2 135.4C45.8 129.667 56.8 126.8 69.2 126.8C81.6 126.8 92.5333 129.667 102 135.4C111.6 141.133 119.067 149.467 124.4 160.4C129.867 171.333 132.6 184.533 132.6 200C132.6 215.467 129.867 228.667 124.4 239.6C119.067 250.533 111.6 258.867 102 264.6C92.5333 270.333 81.6 273.2 69.2 273.2ZM69.2 235.4C72.2667 235.4 75 234.333 77.4 232.2C79.8 230.067 81.6667 226.4 83 221.2C84.4667 216 85.2 208.933 85.2 200C85.2 190.933 84.4667 183.867 83 178.8C81.6667 173.6 79.8 169.933 77.4 167.8C75 165.667 72.2667 164.6 69.2 164.6C66.1333 164.6 63.4 165.667 61 167.8C58.6 169.933 56.6667 173.6 55.2 178.8C53.8667 183.867 53.2 190.933 53.2 200C53.2 208.933 53.8667 216 55.2 221.2C56.6667 226.4 58.6 230.067 61 232.2C63.4 234.333 66.1333 235.4 69.2 235.4ZM161.523 270V146.4L181.723 165.6H137.523V130H208.723V270H161.523Z" fill="white"/>
</g>
</svg>
