<svg width="253" height="231" viewBox="0 0 253 231" fill="none" xmlns="http://www.w3.org/2000/svg">
<mask id="mask0_1_1114" style="mask-type:alpha" maskUnits="userSpaceOnUse" x="0" y="0" width="253" height="231">
<rect x="0.5" y="0.5" width="252" height="230" fill="white" stroke="#ABABAB"/>
</mask>
<g mask="url(#mask0_1_1114)">
<path d="M63.2 270.593C50.8 270.593 39.8 267.726 30.2 261.993C20.7333 256.26 13.2667 247.926 7.8 236.993C2.46667 226.06 -0.2 212.86 -0.2 197.393C-0.2 181.926 2.46667 168.726 7.8 157.793C13.2667 146.86 20.7333 138.526 30.2 132.793C39.8 127.06 50.8 124.193 63.2 124.193C75.6 124.193 86.5333 127.06 96 132.793C105.6 138.526 113.067 146.86 118.4 157.793C123.867 168.726 126.6 181.926 126.6 197.393C126.6 212.86 123.867 226.06 118.4 236.993C113.067 247.926 105.6 256.26 96 261.993C86.5333 267.726 75.6 270.593 63.2 270.593ZM63.2 232.793C66.2667 232.793 69 231.726 71.4 229.593C73.8 227.46 75.6667 223.793 77 218.593C78.4667 213.393 79.2 206.326 79.2 197.393C79.2 188.326 78.4667 181.26 77 176.193C75.6667 170.993 73.8 167.326 71.4 165.193C69 163.06 66.2667 161.993 63.2 161.993C60.1333 161.993 57.4 163.06 55 165.193C52.6 167.326 50.6667 170.993 49.2 176.193C47.8667 181.26 47.2 188.326 47.2 197.393C47.2 206.326 47.8667 213.393 49.2 218.593C50.6667 223.793 52.6 227.46 55 229.593C57.4 231.726 60.1333 232.793 63.2 232.793ZM184.523 270.593C174.923 270.593 165.19 269.526 155.323 267.393C145.457 265.26 136.79 262.126 129.323 257.993L145.323 223.193C151.323 226.66 157.59 229.26 164.123 230.993C170.79 232.593 177.057 233.393 182.923 233.393C188.257 233.393 192.59 232.526 195.923 230.793C199.39 228.926 201.123 226.193 201.123 222.593C201.123 219.526 199.857 217.193 197.323 215.593C194.79 213.86 190.523 212.993 184.523 212.993H165.923V183.993L202.123 147.193L206.323 162.993H136.523V127.393H240.923V156.393L204.723 193.193L182.123 180.393H194.523C212.123 180.393 225.523 184.326 234.723 192.193C243.923 200.06 248.523 210.193 248.523 222.593C248.523 230.593 246.257 238.26 241.723 245.593C237.323 252.926 230.39 258.926 220.923 263.593C211.59 268.26 199.457 270.593 184.523 270.593Z" fill="#556E56"/>
</g>
</svg>
