<svg width="253" height="233" viewBox="0 0 253 233" fill="none" xmlns="http://www.w3.org/2000/svg">
<mask id="mask0_1_1105" style="mask-type:alpha" maskUnits="userSpaceOnUse" x="0" y="0" width="253" height="233">
<rect x="0.5" y="0.5" width="252" height="232" fill="white" stroke="#ABABAB"/>
</mask>
<g mask="url(#mask0_1_1105)">
<path d="M63.2 262.2C50.8 262.2 39.8 259.333 30.2 253.6C20.7333 247.867 13.2667 239.533 7.8 228.6C2.46667 217.667 -0.2 204.467 -0.2 189C-0.2 173.533 2.46667 160.333 7.8 149.4C13.2667 138.467 20.7333 130.133 30.2 124.4C39.8 118.667 50.8 115.8 63.2 115.8C75.6 115.8 86.5333 118.667 96 124.4C105.6 130.133 113.067 138.467 118.4 149.4C123.867 160.333 126.6 173.533 126.6 189C126.6 204.467 123.867 217.667 118.4 228.6C113.067 239.533 105.6 247.867 96 253.6C86.5333 259.333 75.6 262.2 63.2 262.2ZM63.2 224.4C66.2667 224.4 69 223.333 71.4 221.2C73.8 219.067 75.6667 215.4 77 210.2C78.4667 205 79.2 197.933 79.2 189C79.2 179.933 78.4667 172.867 77 167.8C75.6667 162.6 73.8 158.933 71.4 156.8C69 154.667 66.2667 153.6 63.2 153.6C60.1333 153.6 57.4 154.667 55 156.8C52.6 158.933 50.6667 162.6 49.2 167.8C47.8667 172.867 47.2 179.933 47.2 189C47.2 197.933 47.8667 205 49.2 210.2C50.6667 215.4 52.6 219.067 55 221.2C57.4 223.333 60.1333 224.4 63.2 224.4ZM136.123 259V230L186.723 183.2C189.923 180.133 192.257 177.467 193.723 175.2C195.323 172.933 196.39 170.933 196.923 169.2C197.457 167.333 197.723 165.6 197.723 164C197.723 160.533 196.59 157.867 194.323 156C192.057 154 188.657 153 184.123 153C179.99 153 176.057 154.133 172.323 156.4C168.59 158.533 165.657 161.733 163.523 166L127.923 148.2C132.99 138.6 140.59 130.8 150.723 124.8C160.857 118.8 173.457 115.8 188.523 115.8C199.59 115.8 209.39 117.6 217.923 121.2C226.457 124.8 233.123 129.867 237.923 136.4C242.723 142.933 245.123 150.667 245.123 159.6C245.123 164.133 244.523 168.667 243.323 173.2C242.257 177.733 239.99 182.533 236.523 187.6C233.057 192.533 227.923 198.067 221.123 204.2L183.123 238.8L175.723 222.4H248.323V259H136.123Z" fill="#556E56"/>
</g>
</svg>
