<svg width="380" height="858" viewBox="0 0 380 858" fill="none" xmlns="http://www.w3.org/2000/svg">
<rect width="379" height="858" rx="22" fill="#786F69"/>
<mask id="mask0_59_675" style="mask-type:alpha" maskUnits="userSpaceOnUse" x="0" y="75" width="379" height="490">
<rect y="75" width="379" height="490" rx="22" fill="#786F69"/>
</mask>
<g mask="url(#mask0_59_675)">
<path d="M-67.6644 124.616C-70.4258 125.72 -67.8946 133.352 -66.2838 137.03C-66.5134 137.49 -67.111 138.961 -67.6644 141.168C-68.3562 143.926 -67.6644 143.237 -65.592 145.995C-63.5196 148.754 -62.1403 154.961 -60.0693 157.03C-57.9983 159.099 -52.4756 165.996 -55.237 168.754C-57.9983 171.513 -58.6887 172.202 -57.9983 175.651C-57.308 179.099 -55.9273 186.685 -56.6176 189.444C-57.308 192.203 -61.45 192.203 -66.9727 192.892C-72.4954 193.582 -107.703 229.445 -111.155 233.583C-114.606 237.72 -114.606 240.478 -114.606 243.236V243.238C-114.606 245.996 -110.464 250.134 -111.155 254.962C-111.845 259.79 -112.535 260.479 -112.535 261.859C-112.535 263.238 -106.322 264.617 -109.083 268.066C-111.845 271.514 -115.296 263.238 -118.748 262.548C-122.2 261.859 -126.342 269.445 -126.342 272.893C-126.342 276.342 -128.413 280.48 -131.865 283.928C-135.317 287.376 -138.078 290.825 -139.458 294.273C-140.839 297.721 -139.458 299.79 -136.697 301.17C-133.936 302.549 -133.245 310.825 -131.865 311.514C-130.484 312.204 -126.342 314.273 -124.961 317.032C-123.581 319.79 -121.51 319.79 -118.058 320.48C-114.606 321.17 -116.677 329.446 -111.155 328.756C-106.736 328.204 -104.251 323.928 -103.561 321.859C-96.6575 321.859 -99.4189 330.825 -91.1348 330.825C-82.8508 330.825 -78.0184 333.584 -74.5668 334.963C-71.1151 336.342 -66.9731 339.101 -58.689 336.342C-50.405 333.584 -53.1663 337.032 -46.263 343.929C-39.3596 350.825 -35.2176 351.515 -33.1466 350.825C-31.0756 350.136 -28.3142 343.929 -23.4819 340.48C-18.6495 337.032 -6.91383 342.549 4.82188 339.101C16.5576 335.653 11.7253 329.446 20.6996 326.687C29.674 323.928 33.1257 321.17 34.5063 318.411C35.887 315.652 37.2677 317.721 41.4097 318.411C45.5517 319.101 51.0744 317.721 54.5261 316.342C57.9778 314.963 62.8101 317.032 69.0231 316.342C75.2362 315.652 78.6879 322.549 81.4492 325.308C84.2105 328.066 86.9719 334.273 98.7076 334.273C110.443 334.273 106.301 334.963 112.514 342.549C117.485 348.618 120.568 345.998 121.489 343.929C127.011 347.377 124.94 361.17 122.179 363.929C119.418 366.688 121.489 371.515 123.56 373.584C125.631 375.653 131.844 379.791 135.295 381.17C138.747 382.55 137.366 386.688 137.366 391.515C137.366 396.343 133.224 403.24 144.27 406.688C155.315 410.136 151.173 420.481 151.173 422.55C151.173 424.619 149.792 424.619 149.792 425.999C149.792 427.378 155.315 430.137 156.696 431.516C158.076 432.895 156.005 433.585 151.173 433.585C146.341 433.585 148.412 429.447 146.341 428.757C144.27 428.068 141.508 431.516 140.818 432.206C140.128 432.895 135.295 428.068 131.844 427.378C128.392 426.688 127.011 429.447 124.94 430.137C122.869 430.826 124.25 424.619 122.179 424.619C120.108 424.619 113.895 426.688 112.514 429.447C111.134 432.206 111.134 439.792 113.895 443.93C116.656 448.068 112.514 452.895 111.134 454.275C109.753 455.654 104.921 456.344 104.23 458.413C103.54 460.482 102.159 464.62 98.0173 466.689C93.8752 468.758 91.1139 474.275 92.4946 475.654C93.8752 477.034 94.5656 479.792 93.1849 481.861C91.8042 483.93 84.2105 480.482 81.4492 481.172C78.6879 481.861 80.7589 485.31 80.7589 487.379C80.7589 489.448 86.9719 494.965 89.7332 497.034C92.4946 499.103 102.85 501.172 104.921 500.482C106.992 499.793 108.372 498.413 111.134 498.413C113.895 498.413 109.063 492.896 122.869 489.448C136.676 485.999 137.366 494.965 138.057 498.413C138.747 501.862 139.437 502.551 142.889 502.551C146.341 502.551 145.65 490.137 144.96 488.068C144.27 485.999 141.508 487.379 140.818 485.31C140.128 483.241 143.579 483.241 142.889 481.861C142.199 480.482 140.818 481.861 139.437 481.172C138.057 480.482 135.986 472.896 138.057 470.827C140.128 468.758 140.818 471.516 140.818 472.896C140.818 474.275 144.27 479.103 147.031 478.413C149.792 477.723 157.386 470.137 160.148 467.378C162.909 464.62 181.548 442.551 183.619 439.792C185.69 437.033 187.071 428.068 189.142 424.619C191.213 421.171 205.71 421.861 215.374 421.171C225.039 420.481 227.11 418.412 227.11 416.343C227.11 414.274 226.42 409.447 229.871 409.447C233.323 409.447 236.775 421.171 238.155 421.861C239.536 422.55 247.13 423.93 248.511 424.619C249.891 425.309 249.201 428.068 247.13 428.757C245.059 429.447 228.491 425.999 225.039 424.619C221.587 423.24 217.445 425.999 216.065 428.068C214.684 430.137 216.065 429.447 222.968 430.826C229.871 432.206 233.323 431.516 234.704 433.585C236.084 435.654 225.039 437.723 224.349 439.792C223.658 441.861 225.039 441.171 228.491 440.482C231.942 439.792 236.775 442.551 240.917 446.688C245.059 450.826 251.962 451.516 255.414 451.516C258.866 451.516 269.221 449.447 271.982 448.068C274.743 446.688 280.266 445.999 282.337 448.068C284.408 450.137 291.311 451.516 293.382 450.137C295.453 448.757 296.144 447.378 296.834 450.137C297.524 452.895 301.666 457.033 300.976 459.792C300.286 462.551 278.885 470.137 267.15 476.344C255.414 482.551 252.653 488.758 251.962 490.827C251.272 492.896 256.104 494.275 258.866 494.965C261.627 495.655 266.459 489.448 275.434 496.344C284.408 503.241 278.885 499.793 289.24 501.172C299.595 502.551 299.595 513.586 298.905 517.034C298.215 520.482 296.834 520.482 296.144 523.241C295.453 526 297.524 528.069 296.834 530.827C296.144 533.586 293.382 534.276 292.002 536.345C290.621 538.414 292.002 539.793 297.524 541.172C301.943 542.276 305.348 544.851 306.499 546C318.234 546 324.448 541.172 327.899 539.793C331.351 538.414 332.041 528.069 334.803 525.31C337.564 522.551 346.538 520.482 348.609 519.103C350.68 517.724 356.893 519.793 359.655 520.482C362.416 521.172 361.035 516.344 363.106 513.586C365.177 510.827 373.461 508.069 373.461 504.62C373.461 501.172 374.842 502.551 380.365 499.793C385.887 497.034 393.481 506.689 394.862 506C396.242 505.31 411.43 503.241 413.501 501.172C415.572 499.103 414.191 496.344 413.501 492.896C412.811 489.448 414.882 489.448 416.262 485.999C417.643 482.551 412.81 483.241 408.669 483.241C404.526 483.241 399.694 483.93 394.862 484.62C390.029 485.31 390.72 479.792 388.649 479.792C386.578 479.792 384.507 485.999 380.365 489.448C376.223 492.896 372.771 488.758 369.319 487.379C365.868 485.999 352.061 463.24 349.99 460.482C347.919 457.723 345.158 447.378 345.158 443.24C345.158 439.102 346.538 438.413 354.132 436.344C360.207 434.688 360.345 428.297 359.655 425.309C360.115 426.918 361.311 430.55 362.416 432.206C363.797 434.275 359.655 439.102 358.964 440.482C358.274 441.861 352.751 443.93 352.061 445.999C351.371 448.068 354.132 446.688 356.893 445.999C359.655 445.309 364.487 436.344 365.177 434.275C365.868 432.206 372.771 425.309 373.461 423.24C374.152 421.171 383.126 412.895 389.339 411.516C395.552 410.136 401.075 412.895 402.456 411.516C403.836 410.136 410.049 402.55 415.572 403.24C421.095 403.929 423.166 403.24 424.546 400.481C425.927 397.722 433.521 392.895 435.592 392.895C437.663 392.895 442.495 394.274 442.495 392.895C442.495 391.515 447.327 384.619 449.398 381.86C451.469 379.102 452.16 379.791 462.515 379.791C472.87 379.791 472.87 381.17 474.25 379.791C475.631 378.412 474.941 372.895 476.321 371.515C477.702 370.136 478.392 367.377 477.012 365.998C475.631 364.619 474.941 363.239 474.941 361.17C474.941 359.101 475.631 358.412 474.941 356.343C474.25 354.274 474.941 350.825 478.392 348.067C481.844 345.308 489.438 344.618 492.89 343.929C496.341 343.239 490.819 337.722 492.89 334.273C494.961 330.825 498.412 332.204 502.554 332.204C506.696 332.204 502.554 332.894 517.051 332.204C531.548 331.515 530.168 324.618 531.548 321.859C532.929 319.101 531.548 308.756 532.239 307.376C532.929 305.997 535 303.928 535 302.549C535 301.17 530.858 300.48 531.548 299.101C532.239 297.721 530.168 295.652 528.787 294.273C527.406 292.894 528.787 290.825 527.406 288.066C526.026 285.307 525.335 286.687 521.884 285.307C518.432 283.928 520.503 277.721 521.884 276.342C523.264 274.962 521.884 274.962 527.406 274.962C532.929 274.962 532.929 272.204 534.31 270.824C535.69 269.445 532.239 268.066 530.168 267.376C528.097 266.686 525.335 268.066 521.884 268.066C518.432 268.066 518.432 265.307 519.122 262.548C519.813 259.79 522.574 261.169 525.335 259.79C528.097 258.41 526.716 257.031 528.787 254.962C530.858 252.893 533.619 243.238 534.31 242.548C535 241.858 530.858 238.41 528.787 236.341C526.716 234.272 528.097 233.583 530.168 232.203C532.239 230.824 529.477 227.376 528.787 226.686C528.097 225.996 522.574 228.755 520.503 230.134C518.432 231.514 514.29 230.134 512.219 229.445C510.148 228.755 510.148 225.996 510.148 224.617C510.148 223.238 506.696 221.858 504.625 221.169C502.554 220.479 500.483 223.238 498.412 223.238C496.341 223.238 495.651 219.789 495.651 219.1C495.651 218.41 492.889 215.651 491.509 215.651C490.128 215.651 489.438 219.789 486.676 220.479C483.915 221.169 481.844 219.789 479.083 217.031C476.321 214.272 476.321 212.203 472.87 213.582C469.418 214.962 468.037 213.582 464.586 213.582C461.134 213.582 461.824 210.824 461.134 209.444C460.444 208.065 457.682 209.444 454.921 209.444C452.16 209.444 455.611 215.651 454.921 217.031C454.231 218.41 450.089 218.41 448.708 215.651C447.327 212.893 439.734 208.065 437.663 206.686C435.592 205.306 434.901 201.858 434.901 199.789C434.901 197.72 429.379 197.03 427.308 193.582C425.237 190.134 423.856 191.513 421.095 191.513C418.333 191.513 416.953 197.03 412.81 198.41C408.669 199.789 402.456 200.479 401.075 202.548C399.694 204.617 396.933 205.996 394.171 203.927C391.41 201.858 393.481 201.858 387.958 202.548C382.436 203.237 383.816 202.548 382.436 199.789C381.055 197.03 380.365 197.03 374.842 194.961C369.319 192.892 364.487 200.479 362.416 200.479C360.345 200.479 359.655 197.72 358.274 197.03C356.893 196.341 353.442 192.203 352.061 189.444C350.68 186.685 354.132 185.996 355.513 185.306C356.893 184.616 353.442 177.72 352.061 174.961C350.68 172.202 347.229 170.133 348.609 168.064C349.99 165.996 350.68 163.237 347.229 163.927C343.777 164.616 341.706 162.547 342.396 160.478C343.087 158.409 341.016 157.03 339.635 154.961C338.254 152.892 336.183 154.961 332.041 154.961C327.899 154.961 325.828 157.03 323.757 154.961C321.686 152.892 322.376 154.961 318.234 154.961C314.092 154.961 310.641 156.34 309.26 154.961C307.879 153.582 309.95 149.444 309.26 148.064C308.57 146.685 307.879 143.237 307.879 139.099C307.879 134.961 305.118 136.34 303.737 133.581C302.357 130.823 307.879 130.823 311.331 128.754C314.783 126.685 313.402 123.236 313.402 121.857C313.402 120.478 304.428 114.271 302.357 112.202C300.286 110.133 300.976 104.615 300.976 103.236C300.976 101.857 293.382 94.961 291.311 92.2021C289.24 89.4432 285.789 92.2021 283.027 92.8922C280.266 93.5822 276.814 92.8918 272.672 92.2021C268.53 91.5124 267.15 93.5814 265.079 94.961C263.008 96.3407 258.866 97.7197 253.343 98.4094C247.82 99.099 244.368 94.2714 240.227 94.961C236.084 95.6507 238.155 105.306 237.465 108.753C236.775 112.2 227.8 111.512 226.42 111.512C225.039 111.512 222.278 111.512 218.826 108.753C215.374 105.994 207.781 108.063 204.329 108.753C200.877 109.443 200.187 112.201 198.116 111.512C196.045 110.822 191.903 110.132 190.522 112.201C189.142 114.27 189.142 117.029 185.69 119.788C182.238 122.546 180.167 124.615 179.477 126.684C178.787 128.753 178.096 131.512 176.025 133.581C173.954 135.65 174.645 138.409 176.025 141.857C177.406 145.305 180.167 152.891 179.477 154.271C178.787 155.65 175.335 156.34 172.574 151.512C169.812 146.684 165.67 145.305 160.838 143.236C156.005 141.167 156.696 145.305 151.863 145.305C147.031 145.305 150.483 145.305 146.341 143.236C142.199 141.167 142.199 148.753 135.986 148.753C129.773 148.753 131.153 143.926 130.463 140.478C129.773 137.029 127.702 134.96 124.94 134.96C122.179 134.96 119.418 138.409 116.656 141.167C114.447 143.374 112.514 143.926 111.824 143.926C104.23 136.34 102.159 139.098 100.088 138.409C98.0173 137.719 98.0173 133.581 95.2559 133.581C92.4946 133.581 92.4946 135.65 91.1139 137.029C89.7332 138.409 87.6622 137.029 85.5912 134.96C83.5202 132.891 82.1395 139.788 80.7589 140.478C79.3782 141.167 78.6879 140.478 77.3072 137.029C75.9265 133.581 66.2618 134.96 65.5715 134.96C64.8811 134.96 63.5005 133.581 62.8101 130.822C62.1198 128.064 60.0488 125.305 57.9778 125.305C55.9068 125.305 50.3841 125.995 45.5517 123.926C40.7194 121.857 37.2677 121.167 35.1967 120.477C33.1257 119.788 28.2933 119.098 25.532 117.029C22.7706 114.96 15.1769 113.581 11.0349 113.581H11.0307C6.8882 113.581 -0.0116425 113.581 -3.46214 111.512C-6.91383 109.444 -14.5075 111.512 -16.5785 111.512C-18.6495 111.512 -24.1722 112.202 -30.3853 111.512C-36.5983 110.823 -38.6693 112.892 -40.05 116.34C-41.4306 119.788 -49.0243 124.616 -51.7857 126.685C-54.547 128.754 -56.618 124.616 -58.689 123.237C-60.76 121.858 -64.2128 123.237 -67.6644 124.616Z" fill="#556E56"/>
</g>
<path d="M379.001 311.109C311.224 364.027 231.873 372.642 168.302 364.18C119.822 357.726 71.213 342.08 33.5137 310.923C22.7415 302.02 12.1393 292.14 1.50586 282" stroke="white" stroke-dasharray="15 15"/>
</svg>
