<svg width="1710" height="939" viewBox="0 0 1710 939" fill="none" xmlns="http://www.w3.org/2000/svg">
<rect width="1710" height="939" rx="22" fill="#786F69"/>
<mask id="mask0_44_540" style="mask-type:alpha" maskUnits="userSpaceOnUse" x="0" y="0" width="1540" height="939">
<path d="M0 22C0 9.84971 9.84974 0 22 0H1518C1530.15 0 1540 9.84974 1540 22V917C1540 929.15 1530.15 939 1518 939H22C9.84969 939 0 929.15 0 917V22Z" fill="#786F69"/>
</mask>
<g mask="url(#mask0_44_540)">
<path d="M146.545 129.291C140.612 131.697 146.05 148.337 149.511 156.356C149.018 157.358 147.734 160.565 146.545 165.376C145.058 171.391 146.545 169.887 150.997 175.902C155.45 181.916 158.414 195.449 162.863 199.96C167.313 204.471 179.179 219.507 173.246 225.521C167.313 231.536 165.83 233.039 167.313 240.557C168.796 248.075 171.763 264.615 170.279 270.63C168.796 276.644 159.897 276.644 148.031 278.148C136.165 279.651 60.5202 357.84 53.1032 366.861C45.6879 375.881 45.6879 381.895 45.6879 387.908V387.912C45.6879 393.926 54.5873 402.948 53.1032 413.473C51.6192 423.999 50.1376 425.502 50.1376 428.51C50.1376 431.517 63.4867 434.524 57.5537 442.042C51.6208 449.56 44.2047 431.517 36.7885 430.013C29.3723 428.51 20.4729 445.049 20.4729 452.567C20.4729 460.086 16.0232 469.107 8.60627 476.625C1.18929 484.143 -4.74282 491.661 -7.70929 499.18C-10.6758 506.698 -7.70929 511.208 -1.77636 514.216C4.15657 517.223 5.6398 535.266 8.60627 536.77C11.5727 538.274 20.4721 542.784 23.4386 548.799C26.4051 554.813 30.8548 554.813 38.2709 556.317C45.6871 557.821 41.2374 575.864 53.1032 574.36C62.5959 573.158 67.9356 563.835 69.4188 559.324C84.2511 559.324 78.3182 578.871 96.117 578.871C113.916 578.871 124.298 584.886 131.715 587.893C139.131 590.9 148.03 596.915 165.829 590.9C183.628 584.886 177.695 592.404 192.527 607.44C207.359 622.476 216.259 623.98 220.708 622.476C225.158 620.973 231.091 607.44 241.474 599.922C251.856 592.404 277.071 604.433 302.286 596.915C327.501 589.397 317.119 575.864 336.401 569.85C355.683 563.835 363.099 557.821 366.065 551.806C369.032 545.792 371.998 550.303 380.898 551.806C389.797 553.31 401.663 550.303 409.079 547.295C416.495 544.288 426.878 548.799 440.227 547.295C453.576 545.792 460.992 560.828 466.925 566.842C472.858 572.857 478.791 586.389 504.006 586.389C529.221 586.389 520.321 587.893 533.671 604.433C544.35 617.665 550.975 611.951 552.953 607.44C564.818 614.958 560.369 645.03 554.436 651.045C548.503 657.059 552.953 667.585 557.402 672.096C561.852 676.606 575.201 685.628 582.617 688.635C590.033 691.643 587.067 700.664 587.067 711.19C587.067 721.715 578.167 736.751 601.899 744.269C625.631 751.787 616.732 774.342 616.732 778.852C616.732 783.363 613.765 783.363 613.765 786.37C613.765 789.378 625.631 795.392 628.597 798.399C631.564 801.407 627.114 802.91 616.732 802.91C606.349 802.91 610.799 793.889 606.349 792.385C601.899 790.881 595.966 798.399 594.483 799.903C593 801.407 582.617 790.881 575.201 789.378C567.785 787.874 564.818 793.889 560.369 795.392C555.919 796.896 558.885 783.363 554.436 783.363C549.986 783.363 536.637 787.874 533.671 793.889C530.704 799.903 530.704 816.443 536.637 825.465C542.57 834.486 533.671 845.012 530.704 848.019C527.738 851.026 517.355 852.53 515.872 857.041C514.388 861.551 511.422 870.573 502.523 875.084C493.623 879.595 487.69 891.624 490.657 894.631C493.623 897.638 495.106 903.653 492.14 908.164C489.174 912.674 472.858 905.156 466.925 906.66C460.992 908.164 465.442 915.682 465.442 920.192C465.442 924.703 478.791 936.732 484.724 941.243C490.657 945.754 512.905 950.265 517.355 948.761C521.805 947.258 524.771 944.25 530.704 944.25C536.637 944.25 526.254 932.221 555.919 924.703C585.584 917.185 587.067 936.732 588.55 944.25C590.033 951.768 591.517 953.272 598.933 953.272C606.349 953.272 604.866 926.207 603.382 921.696C601.899 917.185 595.966 920.193 594.483 915.682C593 911.171 600.416 911.171 598.933 908.164C597.45 905.156 594.483 908.164 591.517 906.66C588.55 905.156 584.1 888.617 588.55 884.106C593 879.595 594.483 885.609 594.483 888.617C594.483 891.624 601.899 902.149 607.832 900.646C613.765 899.142 630.081 882.602 636.014 876.588C641.946 870.573 681.994 822.457 686.443 816.443C690.893 810.428 693.86 790.881 698.309 783.363C702.759 775.845 733.907 777.349 754.672 775.845C775.437 774.342 779.887 769.831 779.887 765.32C779.887 760.809 778.404 750.284 785.82 750.284C793.236 750.284 800.652 775.845 803.619 777.349C806.585 778.852 822.901 781.86 825.867 783.363C828.834 784.867 827.351 790.881 822.901 792.385C818.451 793.889 782.854 786.371 775.437 783.363C768.021 780.356 759.122 786.371 756.155 790.881C753.189 795.392 756.155 793.889 770.988 796.896C785.82 799.903 793.236 798.399 796.203 802.91C799.169 807.421 775.437 811.932 773.954 816.443C772.471 820.954 775.437 819.45 782.854 817.947C790.27 816.443 800.652 822.457 809.552 831.479C818.451 840.501 833.284 842.004 840.7 842.004C848.116 842.004 870.364 837.493 876.297 834.486C882.23 831.479 894.096 829.975 898.546 834.486C902.995 838.997 917.828 842.004 922.277 838.997C926.727 835.99 928.21 832.983 929.694 838.997C931.177 845.012 940.076 854.033 938.593 860.048C937.11 866.062 891.13 882.602 865.915 896.135C840.7 909.667 834.767 923.2 833.283 927.711C831.8 932.221 842.183 935.229 848.116 936.732C854.049 938.236 864.431 924.703 883.713 939.74C902.995 954.776 891.13 947.258 913.378 950.265C935.627 953.272 935.627 977.33 934.143 984.848C932.66 992.366 929.694 992.366 928.21 998.381C926.727 1004.4 931.177 1008.91 929.694 1014.92C928.21 1020.93 922.277 1022.44 919.311 1026.95C916.344 1031.46 919.311 1034.47 931.177 1037.47C940.669 1039.88 947.987 1045.49 950.459 1048C975.674 1048 989.023 1037.47 996.439 1034.47C1003.86 1031.46 1005.34 1008.91 1011.27 1002.89C1017.2 996.877 1036.49 992.366 1040.94 989.359C1045.39 986.352 1058.73 990.863 1064.67 992.366C1070.6 993.87 1067.63 983.344 1072.08 977.33C1076.53 971.315 1094.33 965.301 1094.33 957.783C1094.33 950.265 1097.3 953.272 1109.16 947.258C1121.03 941.243 1137.35 962.294 1140.31 960.79C1143.28 959.287 1175.91 954.776 1180.36 950.265C1184.81 945.754 1181.84 939.74 1180.36 932.221C1178.88 924.703 1183.33 924.703 1186.29 917.185C1189.26 909.667 1178.88 911.171 1169.98 911.171C1161.08 911.171 1150.7 912.674 1140.31 914.178C1129.93 915.682 1131.41 903.653 1126.96 903.653C1122.51 903.653 1118.06 917.185 1109.16 924.703C1100.27 932.221 1092.85 923.2 1085.43 920.192C1078.02 917.185 1048.35 867.566 1043.9 861.551C1039.45 855.537 1033.52 832.983 1033.52 823.961C1033.52 814.939 1036.49 813.436 1052.8 808.925C1065.85 805.316 1066.15 791.383 1064.67 784.867C1065.66 788.375 1068.23 796.294 1070.6 799.903C1073.57 804.414 1064.67 814.939 1063.18 817.947C1061.7 820.954 1049.84 825.465 1048.35 829.975C1046.87 834.486 1052.8 831.479 1058.73 829.975C1064.67 828.472 1075.05 808.925 1076.53 804.414C1078.02 799.903 1092.85 784.867 1094.33 780.356C1095.82 775.845 1115.1 757.802 1128.45 754.794C1141.8 751.787 1153.66 757.802 1156.63 754.794C1159.59 751.787 1172.94 735.247 1184.81 736.751C1196.68 738.255 1201.13 736.751 1204.09 730.737C1207.06 724.722 1223.37 714.197 1227.82 714.197C1232.27 714.197 1242.66 717.204 1242.66 714.197C1242.66 711.19 1253.04 696.154 1257.49 690.139C1261.94 684.125 1263.42 685.628 1285.67 685.628C1307.92 685.628 1307.92 688.635 1310.88 685.628C1313.85 682.621 1312.37 670.592 1315.33 667.585C1318.3 664.578 1319.78 658.563 1316.82 655.556C1313.85 652.549 1312.37 649.541 1312.37 645.03C1312.37 640.52 1313.85 639.016 1312.37 634.505C1310.88 629.994 1312.37 622.476 1319.78 616.462C1327.2 610.447 1343.52 608.944 1350.93 607.44C1358.35 605.936 1346.48 593.907 1350.93 586.389C1355.38 578.871 1362.8 581.879 1371.7 581.879C1380.6 581.879 1371.7 583.382 1402.84 581.879C1433.99 580.375 1431.03 565.339 1433.99 559.324C1436.96 553.31 1433.99 530.756 1435.48 527.748C1436.96 524.741 1441.41 520.23 1441.41 517.223C1441.41 514.216 1432.51 512.712 1433.99 509.705C1435.48 506.698 1431.03 502.187 1428.06 499.18C1425.09 496.172 1428.06 491.661 1425.09 485.647C1422.13 479.633 1420.64 482.64 1413.23 479.633C1405.81 476.625 1410.26 463.093 1413.23 460.086C1416.19 457.078 1413.23 457.078 1425.09 457.078C1436.96 457.078 1436.96 451.064 1439.93 448.057C1442.89 445.049 1435.48 442.042 1431.03 440.538C1426.58 439.035 1420.64 442.042 1413.23 442.042C1405.81 442.042 1405.81 436.028 1407.29 430.013C1408.78 423.999 1414.71 427.006 1420.64 423.999C1426.58 420.991 1423.61 417.984 1428.06 413.473C1432.51 408.962 1438.44 387.912 1439.93 386.408C1441.41 384.905 1432.51 377.387 1428.06 372.876C1423.61 368.365 1426.58 366.861 1431.03 363.854C1435.48 360.847 1429.54 353.329 1428.06 351.825C1426.58 350.321 1414.71 356.336 1410.26 359.343C1405.81 362.35 1396.91 359.343 1392.46 357.84C1388.01 356.336 1388.01 350.321 1388.01 347.314C1388.01 344.307 1380.6 341.3 1376.15 339.796C1371.7 338.292 1367.25 344.307 1362.8 344.307C1358.35 344.307 1356.86 336.789 1356.86 335.285C1356.86 333.782 1350.93 327.767 1347.97 327.767C1345 327.767 1343.52 336.789 1337.58 338.292C1331.65 339.796 1327.2 336.789 1321.27 330.774C1315.33 324.76 1315.33 320.249 1307.92 323.256C1300.5 326.264 1297.54 323.256 1290.12 323.256C1282.7 323.256 1284.19 317.242 1282.7 314.235C1281.22 311.227 1275.29 314.235 1269.35 314.235C1263.42 314.235 1270.84 327.767 1269.35 330.774C1267.87 333.782 1258.97 333.782 1256 327.767C1253.04 321.753 1236.72 311.227 1232.27 308.22C1227.82 305.213 1226.34 297.695 1226.34 293.184C1226.34 288.673 1214.47 287.169 1210.02 279.651C1205.57 272.133 1202.61 275.141 1196.68 275.141C1190.74 275.141 1187.78 287.169 1178.88 290.177C1169.98 293.184 1156.63 294.688 1153.66 299.198C1150.7 303.709 1144.76 306.716 1138.83 302.206C1132.9 297.695 1137.35 297.695 1125.48 299.198C1113.61 300.702 1116.58 299.198 1113.61 293.184C1110.65 287.169 1109.16 287.169 1097.3 282.659C1085.43 278.148 1075.05 294.688 1070.6 294.688C1066.15 294.688 1064.67 288.673 1061.7 287.169C1058.73 285.666 1051.32 276.644 1048.35 270.63C1045.39 264.615 1052.8 263.112 1055.77 261.608C1058.73 260.104 1051.32 245.068 1048.35 239.054C1045.39 233.039 1037.97 228.528 1040.94 224.018C1043.9 219.507 1045.39 213.492 1037.97 214.996C1030.55 216.499 1026.1 211.989 1027.59 207.478C1029.07 202.967 1024.62 199.96 1021.65 195.449C1018.69 190.938 1014.24 195.449 1005.34 195.449C996.439 195.449 991.989 199.96 987.54 195.449C983.09 190.938 984.573 195.449 975.674 195.449C966.774 195.449 959.358 198.456 956.392 195.449C953.425 192.442 957.875 183.42 956.392 180.413C954.909 177.405 953.425 169.887 953.425 160.866C953.425 151.844 947.492 154.851 944.526 148.837C941.559 142.822 953.425 142.822 960.841 138.311C968.258 133.8 965.291 126.282 965.291 123.275C965.291 120.268 946.009 106.735 941.559 102.224C937.11 97.7136 938.593 85.6847 938.593 82.6775C938.593 79.6702 922.277 64.6359 917.828 58.6208C913.378 52.6057 905.962 58.6208 900.029 60.1253C894.096 61.6298 886.68 60.1245 877.78 58.6208C868.881 57.1172 865.915 61.6281 861.465 64.6359C857.015 67.6438 848.116 70.6504 836.25 72.154C824.384 73.6576 816.968 63.1323 808.068 64.6359C799.169 66.1396 803.619 87.1902 802.136 94.7054C800.652 102.221 781.37 100.72 778.404 100.72C775.437 100.72 769.504 100.72 762.088 94.7054C754.672 88.691 738.357 93.2018 730.94 94.7054C723.524 96.209 722.041 102.224 717.591 100.72C713.142 99.2163 704.242 97.7127 701.276 102.224C698.309 106.734 698.309 112.749 690.893 118.763C683.477 124.778 679.027 129.289 677.544 133.799C676.061 138.31 674.578 144.325 670.128 148.836C665.678 153.347 667.161 159.361 670.128 166.879C673.094 174.397 679.027 190.937 677.544 193.944C676.061 196.951 668.645 198.455 662.712 187.93C656.779 177.404 647.879 174.397 637.497 169.886C627.114 165.375 628.597 174.397 618.215 174.397C607.832 174.397 615.248 174.397 606.349 169.886C597.45 165.375 597.45 181.915 584.1 181.915C570.751 181.915 573.718 171.39 572.235 163.872C570.751 156.354 566.302 151.843 560.369 151.843C554.436 151.843 548.503 159.361 542.57 165.375C537.824 170.187 533.671 171.39 532.187 171.39C515.872 154.85 511.422 160.865 506.972 159.361C502.523 157.857 502.523 148.836 496.59 148.836C490.657 148.836 490.657 153.347 487.69 156.354C484.724 159.361 480.274 156.354 475.824 151.843C471.375 147.332 468.408 162.368 465.442 163.872C462.475 165.375 460.992 163.872 458.026 156.354C455.059 148.836 434.294 151.843 432.811 151.843C431.327 151.843 428.361 148.836 426.878 142.821C425.395 136.807 420.945 130.792 416.495 130.792C412.045 130.792 400.18 132.296 389.797 127.785C379.414 123.274 371.998 121.771 367.548 120.267C363.099 118.763 352.716 117.26 346.783 112.749C340.85 108.238 324.535 105.231 315.635 105.231H315.626C306.726 105.231 291.901 105.231 284.487 100.722C277.071 96.2112 260.756 100.722 256.306 100.722C251.856 100.722 239.991 102.225 226.641 100.722C213.292 99.2181 208.843 103.729 205.876 111.247C202.91 118.765 186.594 129.291 180.661 133.801C174.728 138.312 170.279 129.291 165.829 126.284C161.379 123.276 153.961 126.284 146.545 129.291Z" fill="#556E56"/>
</g>
<path d="M0.5 625.102C80.3638 668.094 201.677 682.465 416 638.999C665.395 588.421 791.5 846.999 985 880.999C1151.79 933.81 1501.18 958.498 1708.53 700.999" stroke="white" stroke-width="2" stroke-dasharray="15 15"/>
</svg>
